<?xml version="1.0" encoding="utf-8"?>
<!-- Generator: Adobe Illustrator 27.10.0, SVG Export Plug-In . SVG Version: 6.00 Build 0)  -->
<svg version="1.1" id="Layer_1" xmlns="http://www.w3.org/2000/svg" xmlns:xlink="http://www.w3.org/1999/xlink" x="0px" y="0px"
	 viewBox="0 0 849.01 159.22" style="enable-background:new 0 0 849.01 159.22;" xml:space="preserve">
<style type="text/css">
	.st0{fill:#2D2A26;}
	.st1{fill:url(#SVGID_1_);}
	.st2{fill:#FFFFFF;}
	.st3{fill:#B68A35;}
	.st4{fill:url(#SVGID_00000183236453039369980520000013336202965293643432_);}
	.st5{fill:url(#SVGID_00000010995534302774024370000004268045608010780838_);}
	.st6{fill:url(#SVGID_00000093177279594290240780000010802211416668628905_);}
	.st7{fill:url(#SVGID_00000025414515484783381000000008890922045376975765_);}
	.st8{fill:url(#SVGID_00000102504276208588040500000008163884911244145039_);}
	.st9{fill:url(#SVGID_00000182522107531701013950000013910834724643081860_);}
	.st10{fill:url(#SVGID_00000166654527828643368590000014086991262645437597_);}
	.st11{fill:url(#SVGID_00000028287825242725796350000000574876782563410343_);}
	.st12{fill:url(#SVGID_00000119810445928869445660000005624789695821932704_);}
	.st13{fill:url(#SVGID_00000111163950553101411720000015575243185662313870_);}
	.st14{fill:url(#SVGID_00000107576062059658164440000000641758998986099851_);}
	.st15{fill:url(#SVGID_00000096737437457045577650000014153497442600694207_);}
	.st16{fill-rule:evenodd;clip-rule:evenodd;fill:#2D2A26;}
	.st17{fill-rule:evenodd;clip-rule:evenodd;fill:#FFFFFF;}
	.st18{fill:none;}
	.st19{fill:#DBDBDA;}
	.st20{fill:url(#SVGID_00000102533793163382461510000013032167636307780751_);}
	.st21{fill:#048442;}
	.st22{fill:url(#SVGID_00000079452223239092621370000016371465113149732775_);}
	.st23{fill:#C8202F;}
	.st24{fill:url(#SVGID_00000117645020527816069080000006111748008942051732_);}
	.st25{fill:url(#SVGID_00000041275756186522462340000009498678908364843930_);}
	.st26{fill:url(#SVGID_00000088119172069856645430000002950156514899394226_);}
	.st27{fill:url(#SVGID_00000139255021433791871870000006531716332344216756_);}
	.st28{fill:url(#SVGID_00000008864944718887112200000007109685622222324122_);}
	.st29{fill:url(#SVGID_00000071532365076377849410000004946433198687040173_);}
	.st30{fill:url(#SVGID_00000001656093804877585690000003668337975537650594_);}
	.st31{fill:url(#SVGID_00000057851822567610626850000007185146319251732111_);}
	.st32{fill:url(#SVGID_00000047049929701301809640000001376008840251928231_);}
	.st33{fill:url(#SVGID_00000138539659050974310350000010602850418425203133_);}
	.st34{fill:url(#SVGID_00000143586844559204669380000007128466699638797472_);}
	.st35{fill:url(#SVGID_00000100361555916787604760000006156796759112533401_);}
	.st36{fill:url(#SVGID_00000138536689719386673730000014454932403977526676_);}
	.st37{fill:url(#SVGID_00000005957925909074534070000016972384783769898939_);}
	.st38{fill:url(#SVGID_00000036967653593800205370000007988157291894477748_);}
	.st39{fill:url(#SVGID_00000170984577842308114000000003000647010545512327_);}
	.st40{fill:url(#SVGID_00000049217381833981175030000014864609888219023264_);}
	.st41{fill:url(#SVGID_00000183224341786264032210000000229042309834493087_);}
	.st42{fill:url(#SVGID_00000011718234727323287120000002946959808515707278_);}
	.st43{fill:url(#SVGID_00000108287688354719057970000001272735078747480976_);}
	.st44{fill:url(#SVGID_00000141450571213529951330000003892453109322557371_);}
	.st45{fill:url(#SVGID_00000072978785476772803660000012528848181175875210_);}
	.st46{fill:url(#SVGID_00000176731583755937758290000000548391183152302762_);}
	.st47{fill:url(#SVGID_00000071548417922402301050000017530153375431751097_);}
	.st48{fill:url(#SVGID_00000045617114444469645990000013812218190790367384_);}
	.st49{fill:url(#SVGID_00000154395105015229264730000003344852631570797466_);}
	.st50{fill:url(#SVGID_00000178903453469194659050000000286282153697579702_);}
	.st51{fill:url(#SVGID_00000004534862794754188490000007193646644983848111_);}
	.st52{fill:url(#SVGID_00000156556905595763575700000004019841331839349929_);}
	.st53{fill:url(#SVGID_00000181049903168177139240000014230611797209359507_);}
	.st54{fill:#231F20;}
	.st55{fill:url(#SVGID_00000173841893578179714870000004221929770958302910_);}
	.st56{fill:url(#SVGID_00000168796851631225257530000011935756543153751451_);}
	.st57{fill:url(#SVGID_00000162340463579751457810000004423284645130787507_);}
	.st58{fill:url(#SVGID_00000084529743263925427500000007374196673368888990_);}
	.st59{fill:url(#SVGID_00000160901608102039198170000000470963298894987176_);}
	.st60{fill:url(#SVGID_00000075159786527915856150000004117847491627723703_);}
	.st61{fill:url(#SVGID_00000003065363308749152600000001185659374285169055_);}
	.st62{fill:url(#SVGID_00000079464585465492695850000016657839395200229294_);}
	.st63{fill:url(#SVGID_00000158723421360506061840000001010900342528376503_);}
	.st64{fill:url(#SVGID_00000014628815690664102750000001912614255993855929_);}
	.st65{fill:url(#SVGID_00000172408399133495486820000000872491019350677130_);}
	.st66{fill:url(#SVGID_00000081615277149237984190000007333033168244473246_);}
	.st67{fill:url(#SVGID_00000168116247762387039060000003566998909954974599_);}
	.st68{fill:url(#SVGID_00000143609506649457523030000000072989567992896920_);}
	.st69{fill:url(#SVGID_00000167355642171797632640000003754296079272626623_);}
	.st70{fill:url(#SVGID_00000080923393967900425250000006716962877246719136_);}
	.st71{fill:url(#SVGID_00000029013139679717751100000018298323406184612280_);}
	.st72{fill:url(#SVGID_00000179636070243441693950000012050867262361985972_);}
	.st73{fill:url(#SVGID_00000028294934824027447190000006281398965623478915_);}
	.st74{fill:url(#SVGID_00000163782391117734679140000013369483068515292824_);}
	.st75{fill:url(#SVGID_00000119103424293909745510000012918473425445836711_);}
	.st76{fill:url(#SVGID_00000084511362066400446550000008963238394199602620_);}
	.st77{fill:url(#SVGID_00000129911405027435686090000011124648124748654477_);}
	.st78{fill:url(#SVGID_00000112610719225560555820000001220803007652141470_);}
	.st79{fill:url(#SVGID_00000183944442773808934050000006580618912171378058_);}
	.st80{fill:url(#SVGID_00000036944003992106627560000008776349778468812675_);}
	.st81{fill:url(#SVGID_00000054250644949937984680000002890864000072786585_);}
	.st82{fill:url(#SVGID_00000094606166823230354130000001439802764321602442_);}
	.st83{fill:url(#SVGID_00000134952513615162789820000008758058020781555644_);}
	.st84{fill:url(#SVGID_00000102545463711475614150000015373716963711997830_);}
</style>
<g>
	<g>
		<g>
			<path class="st2" d="M569.73,51.5c0.3-0.74,0.69-1.19,1.24-1.38l7.52,2.72c1.34-2.08,2.03-3.21,2.18-3.46
				c0.25-0.44,0.34-0.79,0.34-1.04c0-0.44-0.05-0.84-0.15-1.19c-0.79-2.67-1.43-4.7-1.88-6.04c-0.05-0.1-0.15-0.2-0.3-0.34
				c-0.74-0.05-2.28,0.44-4.5,1.48c-0.94,0.44-1.88,1.24-2.72,2.38c-0.74,1.04-1.29,2.03-1.63,3.02l-0.64,1.63h-36.51
				c-0.89,0-1.39-0.2-1.49-0.64c-0.94-5.1-1.63-8.96-1.98-11.53c-1.43,2.43-2.13,3.61-2.13,3.51c0,0.2,0.34,0.94,0.39,1.19
				c-0.94,0.64-1.98,1.29-3.07,1.88c-1.63,0.94-2.52,1.78-2.77,2.47c-0.99,3.02-1.48,4.45-1.48,4.26v0.54l5.99,1.19
				c0.54-0.05,1.04-0.54,1.49-1.48c0.44-0.94,0.89-1.53,1.28-1.68c0.35,1.34,0.54,2.38,0.7,3.02c0.1,0.35,0.34,0.64,0.79,0.99
				c0.15,0.15,0.34,0.25,0.49,0.25h37.79C569.04,52.93,569.38,52.34,569.73,51.5 M574.48,44.97c0.44-0.15,0.79-0.25,1.09-0.25
				c0.54,0,0.99,0.39,1.29,1.14c0.05,0.15,0.25,0.79,0.49,1.83l-4.45-1.78C572.9,45.76,573.44,45.37,574.48,44.97 M528.77,47.79
				h-2.23c-0.35,0-1.39-0.25-3.02-0.74l2.03-0.94c0.89-0.54,1.48-1.24,1.78-2.08c0.1-0.35,0.34-0.54,0.74-0.69
				c0.44,1.93,0.69,3.16,0.69,3.71V47.79z M606.15,89.77c-1.43-0.84-2.28-1.43-2.47-1.78c-0.35-0.64-0.54-1.68-0.59-3.07
				c-0.05-2.13-0.1-3.31-0.15-3.56c0.44-0.35,0.94-0.94,1.38-1.78c0.54-1.04,0.89-1.63,1.09-1.88c-1.68-0.79-3.02-1.73-4.06-2.82
				c-0.25-0.64-0.35-1.19-0.4-1.58h-0.34c-0.25,0.15-0.74,0.89-1.48,2.18c-0.7,1.24-1.04,1.98-1.04,2.13c0,0.1,0.2,0.3,0.59,0.64
				c0.45,0.3,0.64,0.49,0.64,0.54c0.74,3.07,1.24,5.39,1.48,6.97c0.25,1.14,0.34,1.98,0.34,2.47c0,0.35-0.1,0.69-0.24,1.04h-4.55
				c-0.54,0-1.63-0.74-1.78-1.53c-0.05-0.05-0.05-0.25-0.05-0.49l0.39-4.6l-1.38,1.33c-0.59,0.54-0.99,1.09-1.14,1.58
				c-0.15,0.3-0.2,0.89-0.2,1.78c0.05,0.89-0.05,1.53-0.3,1.93h-13.6h-1.58c0.44-1.63,0.79-2.72,0.99-3.16
				c-4.11-0.25-8.11-1.39-12.02-3.51c-0.44-0.15-0.79-0.3-1.04-0.35c-0.35-0.05-0.84-0.1-1.48-0.1h-0.99
				c-0.94,0.15-2.03,0.94-3.17,2.48c-0.44,0.54-0.84,1.38-1.24,2.47l1.34-0.74c0.59-0.3,1.24-0.44,1.93-0.44
				c0.35,0,1.09,0.2,2.13,0.54c2.23,0.74,3.46,1.19,3.71,1.29c-0.89,0.54-1.98,0.99-3.21,1.34c-0.54,0.15-0.84,0.2-0.99,0.2h-14.55
				c-0.89,0-1.43-0.34-1.63-1.04l-2.43-9.69l-2.03,3.96c0.25,0.94,0.54,1.83,0.79,2.72c0.54,1.78,0.79,2.92,0.79,3.47
				c0,0.15-0.05,0.29-0.2,0.49h-8.36c-0.59,0-0.94-0.49-0.69-3.22c-0.1-0.15-0.2-0.2-0.25-0.24c-0.54,0.69-0.89,1.58-1.09,2.62
				c-0.35,1.68-0.54,3.02-0.54,4.01c0.15,0.59,0.4,0.89,0.69,0.89h9.01c0.25-0.24,0.54-0.79,0.89-1.58c0.3-0.64,0.59-1.04,0.94-1.09
				l1.09,2.67h16.87c0.3,0,0.75-0.15,1.34-0.39c1.88-1.04,3.32-1.78,4.25-2.33c0.45-0.25,0.79-0.34,0.99-0.34h5.29l0.4,3.06h16.77
				l1.38-2.37c0.25,0.69,0.49,1.14,0.69,1.34c0.59,0.69,1.19,1.04,1.78,1.04h8.31c0.54,0,1.19,0.3,1.93,0.89l1.58,1.39
				c0.25-0.35,0.54-0.94,0.89-1.88c0.35-0.89,0.54-1.53,0.54-1.98C608.12,91.1,607.48,90.51,606.15,89.77 M524.32,80.32
				c-1.33,1.53-2.52,3.26-3.66,5.09c-1.53,2.48-2.33,4.35-2.33,5.69c0,1.43,1.39,2.13,4.2,2.13c1.24,0,2.82-0.54,4.7-1.63
				c0.34-0.15,0.59-0.49,0.79-0.99l0.34-0.99c0.54-2.03,0.84-3.12,0.84-3.32c0-1.14-0.44-2.18-1.34-3.02L524.32,80.32z
				 M527.14,88.88c-1.58,0.25-2.87,0.39-3.81,0.39c-1.33,0-2.03-0.49-2.03-1.43c0-0.35,0.3-0.94,0.89-1.78
				c0.39-0.54,0.79-1.09,1.24-1.63c1.83,1.33,3.07,2.67,3.71,4.1V88.88z M523.38,35.57c1.63,1.04,2.62,1.53,2.87,1.53
				c0.1,0,0.39-0.29,0.94-0.89c0.79-0.84,1.24-1.29,1.29-1.39l-3.02-1.73c-1.24,1.04-1.83,1.58-1.78,1.58
				c-0.34,0-1.19-0.54-2.57-1.58l-2.03,2.38c1.53,1.04,2.43,1.53,2.72,1.53C521.94,37,522.49,36.51,523.38,35.57 M520.06,77.15
				c0.84,0.44,1.39,0.69,1.68,0.69c0.25,0,0.74-0.49,1.58-1.48l3.02,1.58c0.59-0.25,1.33-1.04,2.27-2.42
				c-1.83-1.09-2.82-1.63-3.06-1.63c-0.1,0-0.45,0.25-0.99,0.74c-0.54,0.49-0.84,0.74-0.89,0.74c-0.15,0-1.09-0.49-2.72-1.48
				c-0.74,0.64-1.48,1.43-2.23,2.33C518.83,76.36,519.27,76.66,520.06,77.15 M588.93,61.25c0.35,0.05,0.65,0.1,0.99,0.1
				c0.54,0,0.99-0.05,1.33-0.2c0.89-0.39,1.63-0.84,2.18-1.38c0.89-0.74,1.68-1.78,2.43-3.12c0.35-0.64,0.89-1.78,1.53-3.42h53.82
				c0.94-1.38,1.68-2.33,2.13-2.87c1.24,1.24,2.13,2.18,2.77,2.87h30.08c0.35,0,1.29-0.44,2.87-1.28c1.58-0.84,2.82-1.29,3.76-1.29
				l6.19,0.49c0.1,0,0.2,0,0.3-0.05l2.52-3.26c-2.38-0.49-4.65-1.29-6.83-2.43c-2.18-1.14-3.71-1.98-4.6-2.52
				c-0.99-0.5-2.03-0.75-3.07-0.75c-1.29,0-2.77,1.14-4.5,3.47c-0.3,0.44-0.45,0.69-0.45,0.84v0.35c0.45-0.1,0.94-0.25,1.54-0.49
				c0.44-0.2,0.84-0.3,1.28-0.3c1.34,0,3.26,0.69,5.79,2.03c-0.2,0.25-0.79,0.49-1.78,0.79c-0.99,0.3-1.68,0.44-2.13,0.44h-29.83
				c-2.47-2.08-5.59-5.1-9.4-9.05c4.05-1.14,7.07-1.93,9.05-2.47l0.79-3.71L652,35.37c-2.28,0.54-4.06,1.19-5.34,1.93
				c-0.64,0.4-1.04,1.19-1.24,2.38c-0.25,1.53-0.39,2.47-0.54,2.72l7.02,6.53c0,0.24-0.05,0.34-0.15,0.34h-53.92
				c-0.25-2.42-0.89-4.65-2.03-6.63c-0.34-0.64-0.89-1.09-1.63-1.43c-0.05-0.05-0.2-0.05-0.45-0.05c-0.54,0-0.99,0.15-1.38,0.49
				c-0.84,0.64-1.58,1.53-2.23,2.77c-0.35,0.64-0.74,1.58-1.19,2.82c-0.54,1.34-0.79,2.28-0.79,2.92c0,0.2,0,0.39,0.05,0.54
				c0.15,0.94,1.58,1.93,2.43,2.08c1.24,0.25,2.67,0.44,4.3,0.54c-2.28,2.67-4.65,4.3-7.12,4.9c-0.64,0.15-1.24,0.25-1.68,0.25
				c-0.05,0-0.7-0.15-1.93-0.49c-1.19-0.3-1.83-0.45-1.88-0.45c-0.35,0-0.54,0.05-0.59,0.1v0.35c0.64,0.69,1.73,1.33,3.26,1.88
				C586.7,60.55,588.04,61,588.93,61.25 M594.27,48.63c-0.15,0.1-0.49,0.15-1.04,0.15c-0.44,0-0.69,0-0.74-0.05
				c-0.84-0.15-1.38-0.49-1.68-0.94c-0.25-0.35-0.35-0.59-0.35-0.84c0-0.2,0.2-0.49,0.54-0.89c0.49-0.49,0.94-0.74,1.29-0.74
				c0.59,0,1.24,0.69,1.78,1.63c0.15,0.25,0.3,0.74,0.54,1.39L594.27,48.63z M750.95,77.94l2.82,1.48c0.74-0.64,1.48-1.43,2.13-2.37
				l-2.92-1.49l-1.09,0.84c-0.45,0.35-0.7,0.54-0.75,0.54c-0.1,0-0.49-0.25-1.24-0.69c-0.74-0.44-1.14-0.7-1.24-0.7
				c-0.25,0-0.99,0.75-2.23,2.23c1.04,0.64,2.08,1.14,3.07,1.53C749.96,78.69,750.46,78.24,750.95,77.94 M613.96,75.52
				c-0.84,1.33-1.24,2.18-1.24,2.42l1.83,15.29c1.34-2.03,2.03-4.45,2.03-7.37L615.6,73.1C615.25,73.54,614.7,74.38,613.96,75.52
				 M595.51,76.41l-3.22-1.73l-1.19,0.99c-0.44,0.44-0.74,0.64-0.84,0.64c-0.2,0-0.54-0.15-1.73-0.94
				c-0.59-0.39-0.94-0.59-0.99-0.59c-0.1,0-0.44,0.35-1.09,0.99c-0.64,0.64-1.04,1.14-1.24,1.48c0.94,0.74,1.78,1.24,2.47,1.48
				c0.39,0.15,0.64,0.25,0.69,0.25c-0.1,0,0.49-0.54,1.73-1.58c1.73,1.04,2.72,1.58,3.07,1.58c-0.15,0,0-0.1,0.39-0.25
				C594.52,77.7,595.16,76.96,595.51,76.41 M779.84,82.25l-1.38,4.01c0.34,0.2,0.99,0.79,2.03,1.73c1.24,1.14,1.83,1.98,1.83,2.48
				c0,1.24-1.19,2.87-3.56,4.8c-2.23,1.83-3.86,2.72-4.9,2.72c-0.49,0-1.34-0.2-2.57-0.59c-1.24-0.39-1.88-0.59-1.98-0.59
				c-0.15,0-0.3,0.05-0.39,0.15v0.44c0.29,0.35,1.53,0.99,3.76,1.83c2.23,0.89,3.71,1.34,4.55,1.34c2.03,0,3.76-1.44,5.19-4.35
				c1.19-2.43,1.78-4.55,1.78-6.43c0-1.38-0.35-2.77-1.09-4.11C782.27,84.18,781.18,83.04,779.84,82.25 M815.12,81.11
				c-0.05-0.1-0.15-0.2-0.29-0.35c-0.75-0.05-2.28,0.44-4.5,1.48c-0.94,0.44-1.88,1.24-2.72,2.38c-0.74,1.04-1.29,2.03-1.63,3.02
				l-0.64,1.63h-12.07c-0.34,0-1.19-0.44-1.43-0.49c-0.25-0.05-0.39-0.2-0.44-0.34c-0.35-2.48-0.84-6.93-1.44-13.36l-0.35-3.51
				c-0.94,0.94-1.68,1.78-2.27,2.52c-0.35,0.45-0.54,0.69-0.54,0.84l1.73,18.3h16.32c0.35-0.29,0.69-0.89,1.04-1.73
				c0.3-0.74,0.69-1.19,1.24-1.38l7.52,2.72c1.34-2.08,2.03-3.21,2.18-3.46c0.25-0.44,0.34-0.79,0.34-1.04
				c0-0.44-0.05-0.84-0.15-1.19C816.21,84.47,815.57,82.45,815.12,81.11 M809.04,85.91c0-0.15,0.54-0.54,1.58-0.94
				c0.44-0.15,0.79-0.25,1.09-0.25c0.54,0,0.99,0.4,1.29,1.14c0.05,0.15,0.25,0.79,0.49,1.83L809.04,85.91z M823.93,99.27
				c-0.35-0.05-0.49-0.25-0.49-0.49c0-0.05,0.05-0.15,0.1-0.2c0.54-0.54,1.04-0.79,1.58-0.79c0.79,0,1.19,0.69,1.19,0.69
				c0.45-0.54,0.69-0.94,0.69-1.14c0,0.05-0.05-0.1-0.15-0.34c-0.1-0.15-0.25-0.3-0.39-0.4c-0.54-0.1-0.74-0.15-0.59-0.15
				c-0.69,0-1.33,0.29-1.98,0.89c-1.04,0.94-1.48,1.93-1.43,2.97c0.89,0.34,1.58,0.59,2.13,0.64c-1.04,0.84-1.53,1.38-1.53,1.63
				v0.35c1.93-1.38,3.56-2.03,4.8-1.98c0.35-0.64,0.59-1.09,0.74-1.43c-0.54,0.05-1.19,0.1-1.93,0.1
				C825.66,99.61,824.76,99.52,823.93,99.27 M768.91,73.1c-0.35,0.44-0.89,1.29-1.63,2.43c-0.84,1.33-1.24,2.18-1.24,2.42
				l1.83,15.29c1.33-2.03,2.03-4.45,2.03-7.37L768.91,73.1z M838.57,73.99c-0.79-0.59-1.24-0.99-1.34-1.14
				c-0.25-0.64-0.35-1.09-0.35-1.43l-2.97,4.6c0.64,0.79,0.99,1.68,0.99,2.67c0,1.88-0.34,3.42-1.04,4.55
				c-0.79-1.43-2.03-3.07-3.76-4.9c-1.73-1.83-3.26-3.16-4.7-4.01c0.05,0.54,0,0.89-0.1,1.09h-2.97c-0.35,1.34-0.49,2.18-0.49,2.42
				c0,1.04,0.25,1.73,0.69,1.98l4.7,2.72l0.59-1.19c0.65,0.39,1.49,1.09,2.48,2.13c0.99,1.04,1.58,1.83,1.83,2.38
				c-2.37,2.13-3.96,3.21-4.75,3.21c-1.04,0-1.58-1.04-1.93-1.48c-0.35,0.89-0.54,1.93-0.54,3.16c0,1.39,0.25,2.23,0.74,2.47h10.54
				c0.2-1.14,0.3-2.22,0.3-3.26c0-1.44-0.35-2.72-1.04-3.96c-0.25-0.39-0.34-0.64-0.34-0.69c0-0.05,0.24-0.49,0.69-1.24
				c0.44-0.74,0.74-1.34,0.89-1.68c0.35-1.04,0.64-2.28,0.89-3.66c0.3,0.25,0.6,0.34,0.84,0.34c0.15,0,0.25,0,0.3-0.05
				c1.43-2.08,2.18-3.21,2.18-3.47C840.9,75.32,840.1,74.83,838.57,73.99 M830.65,89.32c0.65-0.44,1.39-1.19,2.33-2.23
				c0.44,0.74,0.79,1.48,1.14,2.23C833.03,89.47,831.89,89.47,830.65,89.32 M759.61,81.51l-2.03,3.56c1.14,1.83,1.68,2.97,1.68,3.46
				c0,0.15-0.1,0.35-0.3,0.59h-13.11c-0.44,0-1.04-0.2-1.83-0.64c-0.75-0.44-1.24-0.84-1.39-1.19c-0.15-0.35-0.25-0.89-0.25-1.53
				c0-0.1,0.05-0.64,0.15-1.63c0.15-1.04,0.2-1.73,0.2-2.08l-0.2-0.15c-0.49,0.25-0.99,1.29-1.53,3.07
				c-0.45,1.63-0.69,2.97-0.69,4.01c0,0.54,0,0.89,0.05,0.99c0.1,0.64,0.54,1.33,1.34,2.03c0.84,0.64,1.53,0.99,2.13,1.04
				c0.15,0,0.35,0.15,0.54,0.15h15.24c1.43-2.82,2.13-5.2,2.13-7.12c0-0.69-0.25-1.48-0.69-2.42
				C760.6,82.69,760.1,81.95,759.61,81.51 M848.02,73.1c-0.35,0.44-0.89,1.29-1.63,2.43c-0.84,1.33-1.24,2.18-1.24,2.42l1.83,15.29
				c1.34-2.03,2.03-4.45,2.03-7.37L848.02,73.1z M729.13,75.52c-0.84,1.33-1.24,2.18-1.24,2.42l1.83,15.29
				c1.34-2.03,2.03-4.45,2.03-7.37l-0.99-12.77C730.42,73.54,729.88,74.38,729.13,75.52 M630.34,75.57
				c1.63,1.04,2.62,1.53,2.87,1.53c0.1,0,0.39-0.29,0.94-0.89c0.79-0.84,1.24-1.29,1.29-1.39l-3.02-1.73
				c-1.24,1.04-1.83,1.58-1.78,1.58c-0.35,0-1.19-0.54-2.57-1.58l-2.03,2.38c1.53,1.04,2.43,1.53,2.72,1.53
				C628.9,77.01,629.45,76.51,630.34,75.57 M652.4,98.52c-1.14-0.54-2.03-1.14-2.62-1.73c-0.99,1.04-1.68,1.93-2.13,2.57
				c0.15,0.15,0.64,0.49,1.48,0.99c0.84,0.54,1.29,0.79,1.43,0.79c-0.15,0,0.4-0.49,1.68-1.53l2.77,1.63
				c0.99-1.04,1.73-1.98,2.23-2.72l-3.02-1.73C653.89,97.04,653.29,97.63,652.4,98.52 M653.84,90.81c0,0.35,0.3,0.84,0.84,1.48
				c0.54,0.64,1.09,0.94,1.53,0.94h16.08c0.45-3.16,0.69-5.14,0.69-5.89c0-1.93-0.89-3.96-2.62-6.09l-2.03,3.32
				c1.24,1.78,2.03,3.36,2.47,4.7c0-0.05-3.12-0.05-9.4,0h-1.98h-0.99c-1.63-0.3-2.42-0.99-2.42-2.08c0-0.29,0.05-0.84,0.2-1.63
				c0.15-0.79,0.2-1.43,0.2-1.88c0-0.39-0.05-0.74-0.1-1.04c-1.43,1.43-2.23,2.32-2.47,2.72c-0.15,0.74-0.15,1.33-0.1,1.73
				c-0.15,1.29-0.29,2.03-0.39,2.18h-13.7c-0.89,0-1.39-0.2-1.49-0.64c-0.94-5.1-1.63-8.96-1.98-11.53
				c-1.43,2.43-2.13,3.61-2.13,3.51c0,0.2,0.34,0.94,0.39,1.19c-0.94,0.64-1.98,1.29-3.07,1.88c-1.63,0.94-2.52,1.78-2.77,2.47
				c-0.99,3.02-1.48,4.45-1.48,4.26v0.54l5.99,1.19c0.54-0.05,1.04-0.54,1.48-1.48c0.45-0.94,0.89-1.53,1.29-1.68
				c0.35,1.34,0.55,2.38,0.7,3.02c0.1,0.35,0.34,0.64,0.79,0.99c0.15,0.15,0.35,0.24,0.5,0.24h14.59L653.84,90.81z M635.73,87.79
				h-2.23c-0.35,0-1.39-0.25-3.02-0.74l2.03-0.94c0.89-0.54,1.48-1.24,1.78-2.08c0.1-0.35,0.35-0.54,0.75-0.69
				c0.44,1.93,0.69,3.16,0.69,3.71V87.79z M668.78,98.52c-0.84-0.74-1.33-1.14-1.43-1.14c-0.25,0-0.69,0.35-1.34,1.04
				c-0.64,0.74-0.99,1.19-1.04,1.43c1.63,1.29,2.57,1.93,2.87,1.93c0.15,0,0.54-0.25,1.24-0.74c0.69-0.49,1.04-0.89,1.04-1.19
				C670.11,99.71,669.67,99.27,668.78,98.52 M717.9,73.89c-0.25-0.35-0.35-0.89-0.35-1.58c-0.94,1.29-1.83,2.87-2.77,4.75
				c0.94,0.74,1.44,1.14,1.44,1.14c0.64,2.92,1.09,5.1,1.33,6.58c0.3,1.63,0.45,2.72,0.45,3.32c0,0.3-0.05,0.69-0.15,1.19h-11.43
				v-0.34l0.84-1.39c0.35-0.64,0.54-1.09,0.54-1.43c0-0.94-0.54-1.78-1.58-2.62c-1.04-0.84-2.13-1.24-3.26-1.24
				c-0.59,0-1.34,0.15-2.18,0.4l-1.83,0.59l-2.03,3.86c0.44-0.05,0.84-0.1,1.19-0.1c1.48,0,2.62,0.74,3.46,2.28h-11.43h-0.1
				c-1.88-0.74-3.86-2.42-5.88-5.05l-2.13,3.51c1.63,1.83,2.47,3.12,2.47,3.81c0,0.99-1.14,2.43-3.37,4.25
				c-2.23,1.83-4,2.77-5.34,2.77c-0.54,0-1.29-0.2-2.23-0.59c-0.99-0.4-1.54-0.59-1.58-0.59c-0.15,0-0.3,0.05-0.35,0.15v0.35
				c0.44,0.49,1.63,1.19,3.56,2.03c1.98,0.89,3.42,1.34,4.3,1.34c1.63,0,3.27-1.24,4.9-3.71c1.33-1.93,2.08-3.61,2.32-5
				c0.4,0.45,0.74,0.69,1.04,0.69h13.9l1.34-2.28l1.29,2.28h14.69c0.2,0,0.54-0.2,0.69-0.2l0.94-4.95l-0.84-6.83
				c0-0.2,0.05-0.35,0.1-0.44l1.93-2.48c0.45-0.54,0.75-0.94,0.89-1.28c-0.94-0.54-1.83-1.09-2.72-1.68
				C718.74,74.58,718.05,74.08,717.9,73.89"/>
			<path class="st2" d="M243.1,75.47c0-1.39-0.09-1.67-0.62-1.67c-0.65,0-2.78,0.15-3.34,0.25c0.06,0.58,0.09,1.85,0.09,3.92V92.8
				c0,0.52,0.19,0.62,0.65,0.62c0.71,0,2.78-0.09,3.31-0.25c-0.03-0.62-0.09-1.64-0.09-3.8V75.47z M76.36,90.85
				c-1.17,0-2.16-0.06-2.87-0.22v-6.05h4.7c1.08,0,1.76-0.4,2.04-2.56h-6.73v-5.53h3.21c1.39,0,2.44,0,2.9-0.19
				c0.37-0.4,0.74-0.99,0.93-2.38h-7.51c-1.27,0.03-2.62,0.21-3.49,0.43c0.09,1.3,0.09,2.41,0.09,3.89v14.27l0.46,0.59
				c0.74,0.15,2.78,0.31,5.5,0.31c2.38,0,3.77-0.06,4.2-0.15c0.77-0.43,1.36-1.14,1.64-2.47l-0.06-0.06
				C79.88,90.85,77.63,90.85,76.36,90.85 M325.33,82.11c-2.87-1.64-3.89-2.38-3.89-3.83c0-1.36,1.17-2.13,2.81-2.13
				c0.99,0,2.32,0.4,3.02,0.77c1.08,0.06,1.58-1.2,1.58-1.97c-0.77-0.81-2.81-1.48-4.45-1.48h-0.03c-5.1,0-6.58,3.37-6.58,5.47
				c0,1.85,0.62,3.83,4.2,5.77c3.12,1.7,3.83,2.47,3.83,3.83c0,1.57-1.3,2.38-3.15,2.38c-1.48,0-3.34-0.68-4.44-1.45
				c-0.28,0.19-0.74,1.33-0.74,1.98c0,0.4,0.18,0.71,0.71,1.05c0.8,0.59,2.38,1.2,4.51,1.2c3.64,0,6.98-2.07,6.98-5.9
				C329.68,84.86,328.11,83.69,325.33,82.11 M100.44,36.18c1.64,0,3.24,0.34,4.63,1.02c0.99,0.19,1.88-0.74,1.85-1.95
				c-0.74-0.71-3.03-1.79-6.39-1.79c-6.05,0-10.96,3.89-10.96,10.25c0,7.69,5.5,9.98,10.69,9.98c1.48,0,3.15-0.34,4.23-0.65
				c0.83-0.4,1.85-1.05,2.44-1.54v-6.98c0-0.65-0.18-0.83-0.65-0.83c-0.87,0-2.35,0.31-3.34,0.46c0.06,0.74,0.12,1.45,0.12,2.75
				v4.05c-0.37,0.15-1.3,0.34-2.16,0.34c-3.61,0-7.19-2.44-7.19-7.81C93.71,38.65,96.65,36.18,100.44,36.18 M46.84,75.47
				c0-1.39-0.09-1.67-0.62-1.67c-0.65,0-2.78,0.15-3.34,0.25c0.06,0.58,0.09,1.85,0.09,3.92V92.8c0,0.52,0.18,0.62,0.65,0.62
				c0.71,0,2.78-0.09,3.3-0.25c-0.03-0.62-0.09-1.64-0.09-3.8V75.47z M91.15,73.74c-2.53,0-5.65,0.43-6.33,0.59
				c0.03,0.8,0.06,1.39,0.06,3.52v15.1c1.98,0.4,3.83,0.59,6.12,0.59c6.33,0,11.12-3.58,11.12-10.25
				C102.11,79.33,100.45,73.74,91.15,73.74 M91.15,91.13c-0.83,0-1.67-0.06-2.41-0.25V76.31c0.46-0.09,1.02-0.15,1.98-0.15
				c4.6,0,7.26,2.53,7.26,7.19C97.97,89.8,93.93,91.13,91.15,91.13 M153.58,52.52l0.46,0.59c0.74,0.15,2.78,0.31,5.5,0.31
				c2.38,0,3.77-0.06,4.2-0.15c0.77-0.43,1.36-1.14,1.64-2.47l-0.06-0.06c-1.48,0.12-3.74,0.12-5.01,0.12
				c-1.17,0-2.16-0.06-2.87-0.22v-6.05h4.7c1.08,0,1.76-0.4,2.04-2.56h-6.73v-5.53h3.21c1.39,0,2.44,0,2.9-0.19
				c0.37-0.4,0.74-0.99,0.93-2.38h-7.51c-1.26,0.03-2.62,0.21-3.49,0.43c0.09,1.3,0.09,2.41,0.09,3.89V52.52z M304.61,53.69
				c6.55,0,9.98-4.76,9.98-10.28c0-5.44-3.61-9.94-9.85-9.94h-0.03c-6.3,0-10.04,4.45-10.04,10.28
				C294.66,48.41,297.47,53.69,304.61,53.69 M304.36,35.87h0.03c3.83,0,6.08,3.43,6.08,7.81c0,4.82-2.13,7.6-5.59,7.6
				c-3.24,0-6.05-2.75-6.05-7.9C298.84,38.31,301.33,35.87,304.36,35.87 M269.53,36.49h5.56v16.36c0,0.46,0.22,0.56,0.65,0.56
				c1.24,0,2.44-0.09,3.31-0.25c-0.03-0.62-0.09-1.64-0.09-3.77V36.49h4.91c0.65-0.16,1.48-0.93,1.6-2.56h-10.99
				c-3.12,0-3.95-0.03-4.45-0.15c-0.31,0.34-0.68,0.86-1.02,1.79C268.79,36.28,269.04,36.49,269.53,36.49 M318.75,52.83
				c0,0.49,0.22,0.59,0.68,0.59c1.21,0,2.75-0.09,3.27-0.25c-0.06-2.32-0.09-4.88-0.09-7.97h4.73c1.21,0,1.94-0.22,2.26-2.56h-6.98
				v-6.15h4.14c1.36,0,2.01,0,2.41-0.19c0.4-0.4,0.83-0.99,1.08-2.38c-1.48,0-6.73-0.03-7.84,0c-1.36,0.06-3.18,0.31-3.74,0.46
				c0.06,1.08,0.09,1.91,0.09,3.27V52.83z M13.16,74.7v9.26c0,5.9-2.1,6.95-4.6,6.95c-2.13,0-4.6-0.93-4.6-6.67V75.6
				c0-1.51-0.09-1.79-0.65-1.79c-0.61,0-2.75,0.15-3.3,0.25c0.06,0.65,0.09,1.91,0.09,3.98v6.33c0,6.64,2.81,9.33,8.03,9.33
				c3.77,0,8.34-1.23,8.34-9.88v-4.38c0-2.56,0.03-4.39,0.09-5.62c-0.62,0-1.82,0.03-2.72,0.12C13.4,73.99,13.16,74.11,13.16,74.7
				 M34.52,74.83v8.62c0,1.54-0.03,2.75,0.16,5.13c-0.74-1.57-1.88-3.3-3.27-5.5c-2.22-3.43-4.76-7.29-5.74-8.71
				c-0.31-0.34-0.55-0.55-0.87-0.55c-0.55,0-3.21,0.15-3.8,0.25v0.15l0.55,0.77V87.8c0,2.59-0.03,4.38-0.09,5.62
				c0.93,0.03,1.91-0.03,2.47-0.12c0.49-0.09,0.68-0.18,0.68-0.83v-8.09c0-1.57,0.03-3.18-0.15-6.3c1.27,2.38,2.16,4.11,3.8,6.7
				c2.44,3.77,4.02,6.18,5.62,8.4c0.22,0.31,0.4,0.43,0.77,0.43c0.9,0,2.66-0.37,2.93-0.49V79.49c0-2.56,0.03-4.35,0.09-5.68
				c-0.71,0-1.54,0.03-2.5,0.12C34.74,73.99,34.52,74.11,34.52,74.83 M249.64,47.79c0,2.59-0.03,4.38-0.09,5.62
				c0.93,0.03,1.91-0.03,2.47-0.12c0.5-0.09,0.68-0.18,0.68-0.83v-8.09c0-1.57,0.03-3.18-0.15-6.3c1.27,2.38,2.16,4.11,3.8,6.7
				c2.44,3.77,4.02,6.18,5.62,8.4c0.22,0.31,0.4,0.43,0.77,0.43c0.9,0,2.66-0.37,2.93-0.49V39.49c0-2.56,0.03-4.35,0.09-5.68
				c-0.71,0-1.54,0.03-2.5,0.12c-0.43,0.06-0.65,0.18-0.65,0.9v8.62c0,1.54-0.03,2.75,0.15,5.13c-0.74-1.57-1.88-3.31-3.27-5.5
				c-2.23-3.43-4.76-7.29-5.74-8.71c-0.31-0.34-0.55-0.55-0.87-0.55c-0.55,0-3.21,0.15-3.8,0.25v0.15l0.55,0.77V47.79z
				 M309.83,90.85c-1.17,0-2.16-0.06-2.87-0.22v-6.05h4.7c1.08,0,1.76-0.4,2.04-2.56h-6.73v-5.53h3.21c1.39,0,2.44,0,2.9-0.19
				c0.37-0.4,0.74-0.99,0.93-2.38h-7.51c-1.27,0.03-2.63,0.21-3.49,0.43c0.09,1.3,0.09,2.41,0.09,3.89v14.27l0.46,0.59
				c0.74,0.15,2.78,0.31,5.5,0.31c2.38,0,3.77-0.06,4.2-0.15c0.77-0.43,1.36-1.14,1.63-2.47l-0.06-0.06
				C313.35,90.85,311.09,90.85,309.83,90.85 M51.13,73.78c-0.31,0.34-0.68,0.86-1.02,1.79c-0.22,0.71,0.03,0.93,0.52,0.93h5.56
				v16.37c0,0.46,0.22,0.55,0.65,0.55c1.24,0,2.44-0.09,3.31-0.25c-0.03-0.62-0.09-1.64-0.09-3.77V76.49h4.91
				c0.65-0.16,1.48-0.93,1.61-2.56h-11C52.46,73.93,51.63,73.9,51.13,73.78 M182.02,82.7c1.42-0.77,2.72-2.19,2.72-4.11
				s-0.89-4.85-6.7-4.85c-1.98,0-4.91,0.37-5.65,0.56c0.09,1.39,0.09,2.28,0.09,3.92v14.79c1.36,0.31,3.61,0.52,5.19,0.52
				c4.85,0,8.28-2.1,8.28-6.24C185.95,85.26,184.68,83.44,182.02,82.7 M176.28,76.18c0.31-0.06,1.05-0.12,1.54-0.12
				c1.98,0,3.21,1.11,3.21,3.06c0,1.58-0.68,2.63-1.48,3c-1.45-0.03-2.41,0-3.27,0.15V76.18z M177.89,91.25
				c-0.52,0-1.24-0.06-1.61-0.15v-6.61c0.46-0.09,0.96-0.09,1.42-0.09c2.57,0,4.08,1.14,4.08,3.18
				C181.78,89.99,180.17,91.25,177.89,91.25 M199.07,53.17c0.21,0.31,0.4,0.43,0.77,0.43c0.9,0,2.66-0.37,2.93-0.49V39.49
				c0-2.56,0.03-4.35,0.09-5.68c-0.71,0-1.54,0.03-2.5,0.12c-0.43,0.06-0.65,0.18-0.65,0.9v8.62c0,1.54-0.03,2.75,0.15,5.13
				c-0.74-1.57-1.88-3.31-3.27-5.5c-2.22-3.43-4.76-7.29-5.74-8.71c-0.31-0.34-0.55-0.55-0.86-0.55c-0.56,0-3.21,0.15-3.8,0.25v0.15
				l0.55,0.77v12.82c0,2.59-0.03,4.38-0.09,5.62c0.93,0.03,1.91-0.03,2.47-0.12c0.49-0.09,0.68-0.18,0.68-0.83v-8.09
				c0-1.57,0.03-3.18-0.15-6.3c1.27,2.38,2.16,4.11,3.8,6.7C195.89,48.54,197.46,50.95,199.07,53.17 M241.09,50.85
				c-1.17,0-2.16-0.06-2.87-0.22v-6.05h4.7c1.08,0,1.76-0.4,2.04-2.56h-6.73v-5.53h3.21c1.39,0,2.44,0,2.9-0.19
				c0.37-0.4,0.74-0.99,0.93-2.38h-7.51c-1.27,0.03-2.63,0.21-3.49,0.43c0.09,1.3,0.09,2.41,0.09,3.89v14.27l0.46,0.59
				c0.74,0.15,2.78,0.31,5.5,0.31c2.38,0,3.77-0.06,4.2-0.15c0.77-0.43,1.36-1.14,1.64-2.47l-0.06-0.06
				C244.61,50.85,242.36,50.85,241.09,50.85 M204.01,90.85c-1.17,0-2.16-0.06-2.87-0.22v-6.05h4.69c1.08,0,1.76-0.4,2.04-2.56h-6.73
				v-5.53h3.21c1.39,0,2.44,0,2.9-0.19c0.37-0.4,0.74-0.99,0.93-2.38h-7.51c-1.27,0.03-2.63,0.21-3.49,0.43
				c0.09,1.3,0.09,2.41,0.09,3.89v14.27l0.46,0.59c0.74,0.15,2.78,0.31,5.5,0.31c2.38,0,3.77-0.06,4.2-0.15
				c0.77-0.43,1.36-1.14,1.64-2.47l-0.06-0.06C207.53,90.85,205.28,90.85,204.01,90.85 M172.61,52.49v-7.13h0.55
				c1.02,0,1.61,0.25,2.56,2.01c1.24,2.41,1.85,3.64,2.69,4.72c0.8,1.08,1.61,1.39,2.75,1.39c1.11,0,2.25-0.12,2.5-0.31v-0.12
				c-0.77-0.83-1.76-2.22-3.24-4.82c-1.05-1.82-2.01-3.37-2.72-3.99c1.23-0.55,3.7-1.98,3.7-4.91c0-3.92-2.44-5.59-7.35-5.59
				c-1.42,0-4.51,0.34-5.31,0.52c0.06,0.87,0.06,1.61,0.06,3.15v10.35c0,2.59-0.03,4.41-0.09,5.65c0.62,0,2.32-0.03,3.18-0.12
				C172.42,53.23,172.61,53.11,172.61,52.49 M172.61,36.12c0.37-0.06,0.9-0.09,1.33-0.09c1.91,0,3.52,1.08,3.52,3.65
				c0,2.07-1.24,2.99-1.88,3.24c-0.43,0.22-2.13,0.31-2.96,0.22V36.12z M232.36,74.76c-0.09-0.77-0.28-0.96-0.59-0.96
				c-0.74,0-2.81,0.18-3.27,0.43v0.46c-1.3,3.15-3.37,8.71-4.91,12.76l-4.17-11.52c-0.56-1.57-0.81-2.01-1.27-2.13
				c-1.48,0-2.6,0.28-3.37,0.43l0.09,0.59c-1.2,7.04-2.44,15.04-2.99,18.31c0.49,0.28,1.91,0.28,2.75,0.28
				c0.34,0,0.49-0.15,0.56-0.49c0.46-3.61,1.39-10.68,1.82-14.48c1.39,4.2,4.11,12.38,4.85,14.79c0.61,0,1.36-0.12,1.91-0.22
				c0.68-0.15,0.9-0.4,1.11-1.02c1.98-5.8,3.8-10.93,4.67-13.62l0.9,7.75c0.34,3.27,0.52,4.94,0.71,6.52
				c0.06,0.62,0.46,0.77,0.87,0.77c0.62,0,2.56-0.12,3.09-0.28c-0.28-1.48-0.62-3.77-1.11-7.01L232.36,74.76z M216.98,53.23
				c0.62,0,1.36-0.12,1.91-0.22c0.68-0.16,0.9-0.4,1.11-1.02c1.98-5.8,3.8-10.93,4.67-13.62l0.9,7.75c0.34,3.27,0.52,4.94,0.71,6.52
				c0.06,0.62,0.46,0.77,0.87,0.77c0.62,0,2.56-0.12,3.09-0.28c-0.28-1.48-0.62-3.77-1.11-7.01l-1.63-11.37
				c-0.09-0.77-0.28-0.96-0.59-0.96c-0.74,0-2.81,0.18-3.27,0.43v0.46c-1.3,3.15-3.37,8.71-4.91,12.75l-4.17-11.52
				c-0.56-1.57-0.81-2-1.27-2.13c-1.48,0-2.6,0.28-3.37,0.43l0.09,0.59c-1.2,7.04-2.44,15.04-2.99,18.31
				c0.49,0.28,1.91,0.28,2.75,0.28c0.34,0,0.49-0.15,0.55-0.49c0.46-3.61,1.39-10.68,1.82-14.48
				C213.52,42.64,216.24,50.82,216.98,53.23 M276.63,74.36c-0.15-0.37-0.43-0.55-0.71-0.55c-0.37,0-2.1,0.12-3.24,0.37l0.25,0.65
				c-1.17,2.81-5.99,14.3-7.6,18.07v0.12c0.68,0.22,2.04,0.4,2.72,0.4c0.49,0,0.74-0.15,0.87-0.43c0.4-0.99,1.3-3.27,2.01-5.07h6.98
				c0.71,1.76,1.14,2.93,1.7,4.51c0.31,0.84,0.56,0.99,1.05,0.99c0.68,0,2.78-0.15,3.46-0.37v-0.12c-0.61-1.3-1.36-3.24-2.62-6.39
				C280.4,83.84,278.05,77.76,276.63,74.36 M271.78,85.36c1.05-2.66,1.91-5.1,2.69-7.13c0.34,0.99,1.27,3.31,2.69,7.13H271.78z
				 M122.83,74.36c-0.15-0.37-0.43-0.55-0.71-0.55c-0.37,0-2.1,0.12-3.24,0.37l0.25,0.65c-1.17,2.81-5.99,14.3-7.6,18.07v0.12
				c0.68,0.22,2.04,0.4,2.72,0.4c0.49,0,0.74-0.15,0.87-0.43c0.4-0.99,1.3-3.27,2.01-5.07h6.98c0.71,1.76,1.14,2.93,1.7,4.51
				c0.31,0.84,0.56,0.99,1.05,0.99c0.68,0,2.78-0.15,3.46-0.37v-0.12c-0.62-1.3-1.36-3.24-2.63-6.39
				C126.6,83.84,124.25,77.76,122.83,74.36 M117.98,85.36c1.05-2.66,1.91-5.1,2.69-7.13c0.34,0.99,1.26,3.31,2.68,7.13H117.98z
				 M120.27,53.69c6.55,0,9.98-4.76,9.98-10.28c0-5.44-3.61-9.94-9.85-9.94h-0.03c-6.3,0-10.04,4.45-10.04,10.28
				C110.32,48.41,113.13,53.69,120.27,53.69 M120.02,35.87h0.03c3.83,0,6.08,3.43,6.08,7.81c0,4.82-2.13,7.6-5.59,7.6
				c-3.24,0-6.05-2.75-6.05-7.9C114.49,38.31,117,35.87,120.02,35.87 M284.6,73.78c-0.31,0.34-0.68,0.86-1.02,1.79
				c-0.22,0.71,0.03,0.93,0.52,0.93h5.56v16.37c0,0.46,0.22,0.55,0.65,0.55c1.24,0,2.44-0.09,3.31-0.25
				c-0.03-0.62-0.09-1.64-0.09-3.77V76.49h4.91c0.65-0.16,1.48-0.93,1.6-2.56h-10.99C285.93,73.93,285.09,73.9,284.6,73.78
				 M257.3,84.25c1.24-0.56,3.71-1.98,3.71-4.91c0-3.92-2.44-5.59-7.35-5.59c-1.42,0-4.51,0.34-5.31,0.52
				c0.06,0.87,0.06,1.61,0.06,3.15v10.35c0,2.59-0.03,4.41-0.09,5.65c0.61,0,2.32-0.03,3.18-0.12c0.52-0.06,0.71-0.18,0.71-0.8
				v-7.13h0.55c1.02,0,1.61,0.25,2.56,2.01c1.24,2.41,1.85,3.64,2.69,4.73c0.81,1.08,1.61,1.39,2.75,1.39c1.11,0,2.26-0.12,2.5-0.31
				v-0.12c-0.77-0.83-1.76-2.22-3.24-4.82C258.97,86.41,258.01,84.86,257.3,84.25 M255.17,82.92c-0.43,0.22-2.13,0.31-2.96,0.22
				v-7.01c0.37-0.06,0.9-0.09,1.33-0.09c1.91,0,3.52,1.08,3.52,3.65C257.06,81.74,255.82,82.67,255.17,82.92 M161.77,74.36
				c-0.15-0.37-0.43-0.55-0.71-0.55c-0.37,0-2.1,0.12-3.24,0.37l0.25,0.65c-1.17,2.81-5.99,14.3-7.6,18.07v0.12
				c0.68,0.22,2.04,0.4,2.72,0.4c0.49,0,0.74-0.15,0.87-0.43c0.4-0.99,1.3-3.27,2.01-5.07h6.98c0.71,1.76,1.14,2.93,1.7,4.51
				c0.31,0.84,0.55,0.99,1.05,0.99c0.68,0,2.78-0.15,3.46-0.37v-0.12c-0.62-1.3-1.36-3.24-2.62-6.39
				C165.53,83.84,163.19,77.76,161.77,74.36 M156.92,85.36c1.05-2.66,1.91-5.1,2.69-7.13c0.34,0.99,1.27,3.31,2.69,7.13H156.92z
				 M149.91,34.18c-0.43-0.19-1.7-0.4-2.72-0.4c-1.79,5-3.74,10.28-5.4,15.13c-1.54-4.79-3.49-9.88-4.64-13.1
				c-0.58-1.6-0.8-2-1.27-2c-0.93,0-2.38,0.31-3.61,0.68c2.66,6.02,5.22,13,7.51,19.11c1.27,0,2.47-0.15,2.84-0.37
				c0.31-0.12,0.52-0.46,0.77-1.02c2.26-5.44,4.57-10.96,6.73-16.71C150.41,34.73,150.38,34.33,149.91,34.18 M142.44,84.25
				c1.23-0.56,3.71-1.98,3.71-4.91c0-3.92-2.44-5.59-7.35-5.59c-1.42,0-4.51,0.34-5.31,0.52c0.06,0.87,0.06,1.61,0.06,3.15v10.35
				c0,2.59-0.03,4.41-0.09,5.65c0.62,0,2.32-0.03,3.18-0.12c0.53-0.06,0.71-0.18,0.71-0.8v-7.13h0.55c1.02,0,1.61,0.25,2.56,2.01
				c1.24,2.41,1.85,3.64,2.69,4.73c0.81,1.08,1.61,1.39,2.75,1.39c1.11,0,2.25-0.12,2.5-0.31v-0.12c-0.77-0.83-1.76-2.22-3.24-4.82
				C144.11,86.41,143.15,84.86,142.44,84.25 M140.31,82.92c-0.43,0.22-2.13,0.31-2.96,0.22v-7.01c0.37-0.06,0.9-0.09,1.33-0.09
				c1.91,0,3.52,1.08,3.52,3.65C142.19,81.74,140.96,82.67,140.31,82.92"/>
		</g>
	</g>
	<g>
		<g>
			<g>
				<path class="st2" d="M415.15,147.41c-0.23-0.02-0.46-0.04-0.69-0.07c-0.23-0.02-0.46-0.05-0.69-0.07
					c0.03-0.21,0.06-0.42,0.08-0.63c0.03-0.29,0.29-0.53,0.63-0.56c0.05-0.01,0.07-0.01,0.1-0.02c0.25-0.02,0.49-0.09,0.7-0.17
					C415.25,146.4,415.2,146.9,415.15,147.41 M422.76,149.05c0.04-1.76,0.08-3.51,0.12-5.27c-0.67,0.55-1.34,1.08-2.03,1.61
					c0.53,0.14,0.64,0.51,0.63,0.87c-0.02,0.52-0.03,1.04-0.05,1.56c-0.46-0.02-0.91-0.03-1.37-0.06c0.07-1.36,0.13-2.72,0.2-4.08
					c-0.68,0.53-1.37,1.05-2.08,1.56c0.52,0.15,0.65,0.53,0.63,0.88c-0.04,0.52-0.07,1.04-0.1,1.56c-0.73-0.05-1.46-0.1-2.19-0.16
					c0.27-3.18,0.53-6.35,0.8-9.54c-0.66,0.51-1.34,1.01-2.02,1.5c0.49,0.17,0.57,0.54,0.54,0.9c-0.11,1.14-0.22,2.29-0.33,3.43
					c-0.05,0.53-0.45,0.79-0.77,0.91c-0.21,0.1-0.39,0.13-0.41,0.17c-0.93,0.07-1.73,0.71-1.84,1.58l-0.23,1.81
					c0.54,0.07,1.09,0.13,1.63,0.19c0.15,0.02,0.29,0.03,0.44,0.05c0.77,0.08,1.54,0.15,2.31,0.22
					C418.69,148.9,420.72,149.01,422.76,149.05 M408.87,147.8c0.45,0.07,0.9,0.14,1.36,0.21c0.4-2.72,0.8-5.44,1.19-8.15
					c0.05-0.36,0.24-0.7,0.75-0.74c-0.55-0.64-1.08-1.29-1.6-1.94C410,140.72,409.43,144.25,408.87,147.8 M403.69,145.6
					c-0.22-0.05-0.45-0.1-0.68-0.15c-0.22-0.05-0.44-0.1-0.66-0.15c0.04-0.16,0.07-0.31,0.11-0.47c0.26-0.14,0.53-0.28,0.79-0.43
					c0.18,0.24,0.36,0.48,0.55,0.73C403.76,145.29,403.72,145.45,403.69,145.6 M407.19,138.28c0.48,0.21,0.54,0.59,0.47,0.94
					c-0.43,2.31-0.86,4.61-1.3,6.92c-0.45-0.09-0.9-0.17-1.35-0.26c0.06-0.31,0.12-0.63,0.19-0.94c-0.55-0.72-1.08-1.45-1.6-2.18
					c-0.78,0.44-1.57,0.87-2.38,1.29c-0.08,0.31-0.15,0.62-0.23,0.93c-0.45-0.11-0.9-0.22-1.35-0.34c0.34-1.31,0.68-2.63,1.02-3.94
					c-0.78,0.38-1.57,0.74-2.36,1.1c0.48,0.26,0.51,0.64,0.42,0.99c-0.14,0.5-0.28,1-0.41,1.51c-0.2-0.05-0.39-0.11-0.59-0.16
					c0-0.01,0-0.01,0-0.01c-0.37-0.1-0.74-0.21-1.11-0.32c-0.01-0.48,0.06-0.95,0.16-1.42c0.3-1.47,0.71-3.14-1.14-5.11
					c-0.53,0.25-1.07,0.5-1.62,0.74c1.3,0.39,1.83,1.6,2.03,2.56c0.19,1.16-0.45,2.04-0.11,3.03c-0.64-0.19-1.28-0.39-1.92-0.58
					c0,0,0-0.01,0-0.01c0.05-0.15,0.1-0.31,0.15-0.46c0.32-0.99-0.34-2.12-1.47-2.51c-0.08-0.03-0.17-0.06-0.25-0.09
					c-2.5-0.87-4.96-1.85-7.4-2.93c0.16-0.37,0.32-0.74,0.49-1.1c0.14-0.32,0.49-0.42,0.84-0.26c-0.37-0.82-0.73-1.63-1.08-2.45
					c-0.66,1.45-1.33,2.89-2,4.34c2.95,1.36,5.96,2.56,9,3.62c0.43,0.15,0.68,0.57,0.55,0.94c-0.05,0.15-0.1,0.3-0.15,0.46
					c-0.14,0.42-0.28,0.83-0.42,1.25c-0.28,0.12-0.56,0.23-0.84,0.34c-0.16-0.27-0.31-0.55-0.47-0.82c0.14-0.4,0.29-0.81,0.43-1.22
					c-0.32-0.11-0.65-0.23-0.97-0.35c-0.11-0.04-0.22-0.08-0.34-0.12c-2.46-0.91-4.9-1.91-7.3-3.01c-0.17,0.36-0.34,0.73-0.5,1.09
					c2.43,1.12,4.89,2.13,7.38,3.05c-0.07,0.19-0.14,0.37-0.21,0.56c0.46,0.81,0.93,1.61,1.42,2.41c0.86-0.33,1.72-0.66,2.56-1.01
					c0.06-0.2,0.13-0.39,0.19-0.59c0.96,0.31,1.92,0.61,2.89,0.89c0.19,0.28,0.42,0.51,0.72,0.72c-0.13-0.2-0.24-0.41-0.33-0.61
					c0.8,0.23,1.61,0.45,2.42,0.66c1.13,0.29,2.26,0.57,3.39,0.82c1.13,0.25,2.26,0.48,3.4,0.7c0.05,0.01,0.1,0.02,0.15,0.03
					c0.4,0.08,0.8,0.15,1.2,0.22c0.01,0,0.01,0,0.01,0c0.62-3.54,1.22-7.07,1.83-10.6C408.64,137.42,407.92,137.85,407.19,138.28
					 M420.55,150.18c-0.39-0.02-0.71,0.24-0.72,0.56c-0.02,0.33,0.27,0.61,0.67,0.63c0.4,0.02,0.71-0.23,0.72-0.57
					C421.23,150.48,420.94,150.2,420.55,150.18 M416.25,4.86c0.52,0,0.95,0.4,0.95,0.91c-0.28-0.28-1.39-0.52-1.9,0
					C415.3,5.26,415.73,4.86,416.25,4.86 M418.63,6.03c-0.4,3-4.26,3-4.39,0.78c0.69,2.42,4.43,1.15,3.33-1.54
					c1.47-0.56,2.57-0.6,3.76-0.79c-3.08-0.48-6.7-0.86-8.95,0.17c-1.1,0.5-0.79,1.17-0.62,1.45c0.18-0.59,1.16-0.62,1.86-0.39
					C413.09,10.24,418.88,9.71,418.63,6.03 M380.26,137.43c-0.21-0.11-0.42-0.21-0.63-0.32c-0.21-0.11-0.42-0.22-0.63-0.33
					c0.09-0.18,0.19-0.36,0.28-0.54c0.14-0.26,0.48-0.38,0.82-0.28c0.05,0.01,0.07,0.02,0.1,0.02c0.25,0.07,0.5,0.09,0.74,0.09
					C380.7,136.52,380.48,136.97,380.26,137.43 M383.18,130.07c0.41,0.34,0.36,0.71,0.2,1.04c-0.51,1.03-1.02,2.06-1.53,3.09
					c-0.24,0.47-0.7,0.56-1.05,0.57c-0.24,0.01-0.43-0.03-0.45,0.01c-0.92-0.28-1.89,0.04-2.3,0.82c-0.28,0.54-0.58,1.06-0.85,1.61
					c0.63,0.33,1.26,0.66,1.89,0.98c0.64,0.32,1.28,0.64,1.92,0.94c1.55-3.24,3.08-6.47,4.63-9.71
					C384.82,129.64,384,129.86,383.18,130.07 M417.77,150.03c-0.39-0.03-0.73,0.22-0.75,0.54c-0.03,0.34,0.27,0.62,0.67,0.65
					c0.38,0.03,0.72-0.21,0.74-0.55C418.44,150.34,418.15,150.05,417.77,150.03 M416.1,149.9c-0.39-0.04-0.73,0.21-0.76,0.53
					c-0.03,0.33,0.26,0.62,0.66,0.65c0.38,0.03,0.72-0.2,0.75-0.53C416.77,150.22,416.48,149.93,416.1,149.9 M400.36,139.86
					c0.34,0.09,0.69-0.09,0.78-0.41c0.08-0.31-0.14-0.65-0.47-0.74c-0.35-0.09-0.7,0.09-0.79,0.4
					C399.78,139.44,400,139.77,400.36,139.86 M398.85,139.45c0.34,0.1,0.7-0.08,0.78-0.4c0.08-0.31-0.12-0.65-0.46-0.75
					c-0.35-0.1-0.71,0.08-0.79,0.39C398.28,139.02,398.49,139.35,398.85,139.45 M413.94,140.3c0.36,0.04,0.66-0.2,0.7-0.53
					c0.04-0.32-0.2-0.62-0.55-0.66c-0.33-0.04-0.65,0.19-0.69,0.52C413.35,139.96,413.6,140.26,413.94,140.3 M446.61,141.36
					c0.35-0.08,0.58-0.41,0.5-0.73c-0.08-0.33-0.43-0.52-0.77-0.44c-0.36,0.08-0.57,0.41-0.5,0.73
					C445.92,141.23,446.25,141.44,446.61,141.36 M382.24,129.04c0.32,0.17,0.69,0.06,0.84-0.23c0.15-0.29,0.03-0.65-0.29-0.82
					c-0.3-0.16-0.69-0.05-0.84,0.23C381.79,128.52,381.93,128.88,382.24,129.04 M414.11,138.86c0.35,0.04,0.65-0.19,0.68-0.52
					c0.03-0.32-0.2-0.62-0.54-0.66c-0.33-0.04-0.64,0.19-0.68,0.51C413.53,138.53,413.78,138.83,414.11,138.86 M445.08,141.7
					c0.35-0.07,0.58-0.4,0.51-0.72c-0.07-0.33-0.42-0.53-0.76-0.46c-0.35,0.07-0.59,0.4-0.52,0.73
					C444.37,141.57,444.72,141.77,445.08,141.7 M381.57,130.33c0.33,0.17,0.7,0.05,0.85-0.24c0.15-0.29,0.02-0.66-0.3-0.82
					c-0.31-0.16-0.69-0.06-0.85,0.23C381.12,129.78,381.26,130.16,381.57,130.33 M417.66,66.78c-0.12-2.25-0.21-4.8-0.21-7.57
					c0-2.51,0.07-4.78,0.18-6.79c6.36-0.57,15.47-0.73,23.88,1.45c0.61,1.8,0.94,3.73,0.94,5.73c0,2-0.33,3.92-0.94,5.72
					C433.12,67.51,424.04,67.35,417.66,66.78 M424.46,77.6c-2.01,0-3.97-0.33-5.86-0.98c-0.15-0.96-0.59-4.14-0.88-8.76
					c6.27,0.55,15.07,0.69,23.34-1.33C438.35,73.03,431.93,77.6,424.46,77.6 M406.47,59.61c0-7.26,4.4-13.81,11.04-16.6
					c-0.35,2.15-1.12,7.87-1.12,16.2c0,8.34,0.76,14.69,1.08,16.97C410.86,73.39,406.47,66.84,406.47,59.61 M418.66,42.58
					c1.86-0.64,3.81-0.96,5.8-0.96c7.46,0,13.88,4.57,16.6,11.05c-8.28-2.02-17.11-1.87-23.36-1.32
					C418,46.57,418.5,43.51,418.66,42.58 M424.46,40.56c-2.21,0-4.38,0.38-6.44,1.12c-7.54,2.71-12.61,9.92-12.61,17.93
					c0,7.98,5.04,15.18,12.54,17.91c2.09,0.76,4.28,1.14,6.51,1.14c10.51,0,19.05-8.55,19.05-19.05
					C443.51,49.1,434.97,40.56,424.46,40.56 M468.88,141.45c-0.18,0.08-0.38,0.03-0.45-0.12c-0.07-0.15,0.02-0.34,0.2-0.42
					c0.07-0.03,0.15-0.05,0.21-0.04c-0.65-0.21-1.23,0.5-0.73,0.93c-0.17,0.11-0.31,0.11-0.4,0.01c-0.12,0.23-0.23,0.47-0.35,0.71
					c0.86-0.38,1.72-0.78,2.58-1.18c-0.28-0.09-0.56-0.18-0.83-0.27C469.15,141.21,469.05,141.37,468.88,141.45 M478.3,60.26v-2.12
					c0-1.07,0-2.11,0.01-2.61c0.01-2-0.32-4.65-2.22-5.95c0.57,2.24,0.18,2.63,0.18,6.41v2.65v0.4v1.65c0,1.39,0.19,2.59,0.53,3.64
					c-2.2-1.06-4.56-3.39-4.56-7.48c0-1.37-0.33-7.03-2.04-9.38v9.81c0,1.29,0.16,2.43,0.46,3.42c-5.17-2.62-4.66-11.54-6.34-15.01
					c0,3,0.07,5.1,0.07,8.09c0,1.47,0.22,2.74,0.59,3.84c-4.53-2.89-5.05-8.55-5.4-12.79c-0.44,1.57-1.16,5.7,0.08,9.59
					c-3.04-2.32-4.73-7.27-4.52-10.81c-0.45,1.94-0.92,4.86,0.03,7.79c-0.17,3.33-0.14,29.59-0.14,32.45
					c-1.72-1.43-3.5-4.01-3.3-7.93c0.06-0.64,0.13-1.25,0.22-1.83c1.21-8.2,1.46-20.01-1.92-29.45c2.73,14.76-0.68,29.93-1.15,32.98
					c-0.85,5.45,1,16.75,4.85,29.28c-0.75-0.74-3.31-1.81-4.34-2.84c0,1.13,0.41,2.35,0.41,4.82c-1.32-2.21-1.82-2.3-3.23-4.76
					c0.44,2.89,0.31,3.14,0.31,5.63c-1.37-2.58-2.1-6.01-5.24-10.91c-6.98-10.9-17.05-4.14-17.05-2.24c0-1.9-10.07-8.66-17.05,2.24
					c-3.14,4.9-3.87,8.33-5.25,10.91c0-2.49-0.12-2.75,0.32-5.63c-1.4,2.45-1.91,2.54-3.23,4.76c0-2.47,0.41-3.7,0.41-4.82
					c-1.03,1.03-3.6,2.1-4.34,2.84c3.85-12.54,5.7-23.83,4.85-29.28c-0.48-3.06-3.89-18.23-1.15-32.98
					c-3.39,9.45-3.14,21.26-1.93,29.45c0.09,0.58,0.15,1.2,0.22,1.83c0.19,3.93-1.59,6.51-3.32,7.94c0-2.86,0.04-29.1-0.13-32.47
					c0.95-2.93,0.48-5.85,0.03-7.79c0.21,3.54-1.48,8.49-4.52,10.81c1.23-3.89,0.52-8.02,0.07-9.59c-0.36,4.23-0.87,9.9-5.4,12.79
					c0.37-1.1,0.59-2.37,0.59-3.84c0-2.99,0.07-5.1,0.07-8.09c-1.69,3.46-1.17,12.38-6.34,15.01c0.29-1,0.45-2.13,0.45-3.42v-9.81
					c-1.7,2.35-2.03,8.01-2.03,9.38c0,4.09-2.36,6.41-4.56,7.47c0.33-1.05,0.53-2.25,0.53-3.64v-1.65v-0.4v-2.65
					c0-3.78-0.4-4.17,0.18-6.41c-1.9,1.3-2.23,3.95-2.22,5.95c0,0.5,0,1.54,0,2.61h0v2.12c0,4.27-2.57,6.62-4.85,7.61
					c0.39-0.51,0.81-1.9,0.81-3.97V43.32c0-5.79,6.76-12.44,9.26-15.37c6.92-8.11,9.94-1.52,16.91,0.84
					c11.59,3.93,17.77-0.46,17.77-0.46c6.19-3.89,6.21-7.57,6.21-9.87c0-1.56-0.6-3.58-1.73-4.87c-2.12-2.11-5.87-2.79-6.54-2.66
					c-1.41,0.72-2.67,0.73-2.92,0.93c-0.65-1.29-0.49-3.27,2.43-4.89c0.82-0.45,0.51-1.49,3.01-2.94
					c7.28-4.25,14.41-2.71,18.57,1.93c-1.47-0.54-2.89-1.03-5.37-1.26c3.48,1.21,7.61,4.08,10.27,8.87c1.09,1.9,3.55,7.15,4.42,8.73
					c1.86,3.38,5.22,10.47,17.05,6.48c6.97-2.35,9.99-8.96,16.91-0.84c2.5,2.93,9.26,9.58,9.26,15.37v20.59
					c0,2.07,0.42,3.46,0.81,3.97C480.88,66.88,478.3,64.53,478.3,60.26 M478.31,76.33v-5.88c0-0.97-0.03-1.83-0.1-2.59
					c0.34,0.13,0.66,0.24,0.95,0.35c0.98,0.98,2.1,1.68,3.18,2.22v9.53c0,2.07,0.42,3.46,0.81,3.97
					C480.88,82.93,478.32,80.58,478.31,76.33 M478.4,96.31c0-0.69-0.09-6.41-0.09-7.52c0-1.23-0.05-3.33-0.16-4.91
					c0.37,0.14,0.7,0.27,1.01,0.38c0.98,0.97,2.1,1.67,3.18,2.21v12.17c0,2.06,0.42,3.46,0.81,3.97
					C481.12,101.72,478.4,99.28,478.4,96.31 M478.4,127.17v-4.56l0,0c-0.01-2.87-0.09-5.37-0.09-6.22v-6.79
					c0-0.58-0.02-3.54-0.03-7.35c0.13,0.06,0.26,0.1,0.39,0.15c1.09,1.25,2.41,2.12,3.68,2.74v24.34c0,2.07,0.42,3.46,0.81,3.97
					C481.12,132.58,478.4,130.03,478.4,127.17 M472.24,72.9v-5.95c0-1.05-0.04-1.93-0.09-2.68c0.23,0.09,0.46,0.18,0.67,0.26
					c1.06,1.13,2.31,1.93,3.49,2.51c0.02,1.25-0.04,2.56-0.04,3.87v5.83c0,1.39,0.19,2.59,0.53,3.64
					C474.6,79.32,472.24,76.99,472.24,72.9 M472.24,91.24v-5.95c0-1.06-0.04-3.28-0.1-4.97c0.24,0.09,0.47,0.18,0.68,0.26
					c1.06,1.12,2.31,1.92,3.49,2.5c0.04,1.99-0.04,4.72-0.04,6.16v3.47v0.01v2.16c0,0.14,0,0.27,0.01,0.41c-0.01,0-0.01,0-0.01-0.01
					v0.13c0,1.25,0.16,2.34,0.43,3.32C474.71,97.82,472.24,95.26,472.24,91.24 M472.24,112.06v-5.95c0-1.03-0.04-4.85-0.09-7.75
					c1.19,1.58,2.75,2.49,4.16,3.12c-0.02,4.39-0.03,7.92-0.03,8.58v3.46v0.02v2.16c0,2.07,0,3.26,0.39,3.77
					C474.97,118.73,472.24,116.33,472.24,112.06 M466.43,69.41v-5.39c0-1.11,0.01-1.86-0.02-2.48c0.55,0.21,1.14,0.4,1.76,0.56
					c0.66,0.51,1.35,0.94,2.03,1.29c0,0.2,0,0.39,0,0.58v9.35c0,1.28,0.16,2.4,0.45,3.39C468.55,75.58,466.43,73.29,466.43,69.41
					 M466.43,85.79V80.4c0-2.06-0.06-2.05-0.06-3.05c0.57,0.25,1.11,0.45,1.58,0.63c0.73,0.59,1.5,1.08,2.25,1.47
					c0,1.22,0,2.58,0,2.88v9.34c0,0.42,0.02,0.82,0.05,1.2C468.29,91.67,466.43,89.42,466.43,85.79 M470.2,103.14v9.23
					c-1.94-1.21-3.78-3.45-3.78-7.05v-5.4c0-1.57-0.03-5.11-0.05-7.22c1.09,1.44,2.48,2.41,3.82,3.11
					C470.21,98.33,470.2,102.76,470.2,103.14 M461.34,66.73v-5.42c0-1.39-0.02-2.42-0.1-3.19c0.2,0.11,0.41,0.21,0.62,0.32
					c0.68,0.78,1.51,1.49,2.51,2.11c0.02,0.45,0.01,0.9,0.01,1.31v7.98c0,1.48,0.22,2.75,0.59,3.85
					C463.1,72.47,461.34,70.25,461.34,66.73 M461.34,81.23v-5.42c0-0.61-0.01-1.14-0.02-1.62c0.26,0.14,0.52,0.28,0.79,0.41
					c0.69,0.7,1.46,1.26,2.23,1.73c0.05,0.65,0.05,1.32,0.05,1.92v7.98c0,0.57,0.04,1.11,0.1,1.62
					C462.8,86.56,461.34,84.43,461.34,81.23 M464.39,97.78v6.69c-1.65-1.29-3.05-3.39-3.05-6.54v-5.42c0-1.01-0.01-2.9-0.05-4.36
					c0.87,1.15,1.94,2.01,3.03,2.66C464.4,93.1,464.39,97.1,464.39,97.78 M456.15,65.35c0-1.24-0.09-7.74-0.11-11.98
					c0.71,1.22,1.73,2.41,3.18,3.48c0.16,1.2,0.08,2.69,0.08,3.74v6.56c0,1.22,0.15,2.3,0.42,3.27
					C457.74,68.95,456.15,67.15,456.15,65.35 M456.08,69.34c0.65,1.18,1.74,2.42,3.24,3.56c0.01,0.78-0.02,1.57-0.02,2.19v5.41
					c-1.79-1.4-3.16-3.08-3.16-4.75C456.15,74.99,456.12,72.29,456.08,69.34 M459.31,91.8v3.87c-1.79-1.4-3.16-3.08-3.16-4.75
					c0-1.17-0.09-7.02-0.1-11.24c0.64,1.18,1.73,2.45,3.23,3.59C459.38,85.73,459.31,90.86,459.31,91.8 M454.47,114.3
					c0.24,0.55,0.18,1.65,0.43,2.15c0.25,0.5,0.81,0.86,0.97,1.11c0.21,0.34,0.13,1.21,0.4,1.81c0.13,0.28,0.27,0.57,0.41,0.82
					c-0.18,0.2-0.33,0.43-0.46,0.64c-0.42-0.94-1.46-1.05-2.23-0.56c-0.4,0.25-0.86,0.64-1.22,1.25c0.15-1.07-0.05-1.41-0.46-1.83
					c-0.61-0.61-0.37-1.9-0.87-2.67c-0.38-0.6-1.09-0.79-1.55-1.72c-0.45-0.92-0.23-1.41-0.69-2.33c-0.52-1.04-0.65-1.37-0.68-2.77
					c0.6,0.76,1.28,1.4,2.2,2.33c0.33-2.18,0.36-2.7,0.36-4.59c0.93,0.79,1.87,1.97,2.18,2.77c0.18,0.48,0.34,1.86,0.42,2.09
					C453.9,113.52,454.23,113.75,454.47,114.3 M458.53,120.67c0.97,0.08,0.44,4.29,1.15,5.77c0.73,1.49,0.42,2.73-0.96,2.6
					c-1.41-0.13-1.33-4.41-1.34-5.16c0-1.06-0.54,0.56-0.83,1.16c-0.06-0.26-0.12-0.55-0.17-0.85c-0.1-0.72-0.03-1.18,0.03-1.63
					C456.8,121.55,457.55,120.6,458.53,120.67 M459.78,122.39c0.39-1.27,1.44-3.04,2.65-2.76c0.95,0.21,0.04,3.26,0.61,4.75
					c1.12,2.91-0.45,3.89-1.8,3.56c-1.51-0.38-0.84-4.45-0.71-5.03c0.04-0.96-0.46-0.02-0.8,0.52
					C459.66,123.18,459.62,123.01,459.78,122.39 M464.28,122.99l8.92,6.09l-0.01,12.83c-14.16,8.03-30.05,12.69-46.42,13.04l-0.27,0
					c0,0-1.25,1.03-1.85,1.53v0c0,0,0,0,0,0c-0.6-0.5-1.84-1.53-1.84-1.53l-0.27,0c-16.37-0.35-32.25-5.01-46.42-13.04l-0.01-12.83
					l8.91-6.09c0.22,0.12,0.44,0.25,0.66,0.37c0.03,1.28-0.87,1.93-0.66,3.25c0.17,1.09,0.84,1.87,1.63,2.23
					c0.21,0.48,0.61,0.87,1.14,1.09c0.54,0.2,0.48-0.26,0.47-0.96c0.12-0.03,0.23-0.07,0.35-0.13c0.15,0.52,0.49,0.9,0.92,1.12
					c0.19,0.39,0.55,0.75,1.25,1.22c0.7,0.32,0.23-0.43,0.1-1.11c0.26-0.06,0.52-0.17,0.77-0.34c0.09,0.21,0.22,0.4,0.41,0.53
					c0.06,0.05,0.13,0.09,0.2,0.14c0.17,0.71,0.67,1.13,1.43,1.55c0.51,0.17,0.31-0.41,0.26-0.95c0.7,0.01,1.32-0.38,1.6-1.53
					c0.13-0.55,0.13-0.89,0.09-1.18c8.46,3.6,17.6,6.04,26.54,6.32c0.32,0.24,2.46,1.86,2.46,1.86s2.15-1.61,2.46-1.86
					c8.89-0.27,17.98-2.69,26.4-6.26c-0.02,0.28-0.02,0.61,0.11,1.12c0.28,1.15,0.9,1.54,1.6,1.53c-0.05,0.55-0.24,1.12,0.26,0.95
					c0.76-0.43,1.25-0.84,1.43-1.56c0.06-0.04,0.14-0.09,0.2-0.13c0.19-0.13,0.32-0.32,0.41-0.53c0.26,0.17,0.51,0.28,0.77,0.34
					c-0.13,0.68-0.6,1.43,0.1,1.11c0.7-0.47,1.06-0.82,1.25-1.22c0.43-0.22,0.77-0.6,0.92-1.12c0.11,0.06,0.23,0.09,0.35,0.13
					c-0.01,0.69-0.08,1.16,0.46,0.96c0.53-0.22,0.93-0.61,1.14-1.09c0.8-0.36,1.47-1.14,1.63-2.23c0.2-1.29-0.66-1.94-0.66-3.18
					C463.76,123.29,464.02,123.14,464.28,122.99 M386.13,124.38c0.57-1.49-0.34-4.54,0.61-4.75c1.21-0.28,2.27,1.48,2.66,2.76
					c0.12,0.36,0.1,0.91,0.05,1.03c-0.34-0.54-0.85-1.48-0.81-0.52c0.13,0.59,0.81,4.65-0.71,5.03
					C386.58,128.28,385.02,127.29,386.13,124.38 M390.64,120.67c0.98-0.07,1.73,0.88,2.11,1.88c0.06,0.45,0.13,0.91,0.03,1.63
					c-0.04,0.3-0.1,0.58-0.17,0.85c-0.28-0.6-0.82-2.22-0.82-1.16c-0.01,0.75,0.07,5.03-1.34,5.16c-1.38,0.13-1.69-1.11-0.96-2.6
					C390.2,124.96,389.67,120.74,390.64,120.67 M395.54,123.9c-1.16,2.09-0.13,6.02-1.46,6.1c-3.8,0.25-0.98-4.52-0.84-5.71
					c0.18-1.52,0.02-3.74,1.5-3.28c1.33,0.41,3.02,4.72,3.84,6.01c0.01,0.01,0.02,0.03,0.04,0.04c-0.3-0.12-0.6-0.25-0.9-0.37
					c0.08,0.03,0.15,0.05,0.19,0.06C396.56,126.22,395.78,122.94,395.54,123.9 M454.42,121.01c1.49-0.46,1.33,1.76,1.5,3.28
					c0.14,1.19,2.96,5.96-0.84,5.71c-1.32-0.08-0.29-4.01-1.46-6.1c-0.2-0.87-0.84,1.82-1.96,2.76c-0.36,0.15-0.73,0.3-1.1,0.45
					C451.44,125.62,453.14,121.4,454.42,121.01 M433.7,121.57c0.95,5.53-4.5,5.84-5.32,1.58c-0.1-0.54-0.25-2.18-0.42-4.36
					c-0.41-7.43-1.02-19.2-1.06-21.43c0.92-0.58,2.02-1.03,3.14-1.33C430.64,100.23,433.44,120.09,433.7,121.57 M434.25,95.75
					c0.59,0.11,1.08,0.31,1.43,0.6c0.53,0.37,1.12,0.88,1.74,1.49c0.98,3.72,4.96,18.59,5.31,20.08c0.43,1.79,0.9,3.43,1.65,4.18
					c-2.4,0.45-4.1,0-4.66-2.19C439,116.5,435.24,99.51,434.25,95.75 M438.3,120.01c0.31,1.82,1.77,4.43,0.1,4.83
					c-2.59,0.63-2.82-0.81-3.24-3.03c-0.01-0.06-3.65-23.85-4.16-25.98c0.83-0.16,1.64-0.21,2.37-0.18
					C433.91,98.27,438.05,118.53,438.3,120.01 M422.67,122.27c0-2.89,0.44-21.27,0.53-24.23c0.74,0.64,1.24,1.39,1.38,2.23
					c0.15-0.84,0.65-1.59,1.39-2.23c0.08,2.96,0.52,21.35,0.52,24.23c0,3.14-0.83,4.27-1.91,4.92
					C423.5,126.54,422.67,125.41,422.67,122.27 M405.02,117.73c-0.71,2.5-2.41,5.11-2.82,5.51c1.47,0.55,4.16,0.99,6.05,0.24
					c-0.27,0.99-0.25,1.89,0.59,2.73c1.03,1.03,3.94,1.78,5.36-0.65c1.14,4.05,5.5,3.85,7.22,1.03c0.74,2.35,2.28,2.64,3.16,3.53
					c0.89-0.89,2.43-1.18,3.17-3.53c1.71,2.83,6.08,3.02,7.22-1.03c1.42,2.43,4.33,1.68,5.36,0.65c0.84-0.84,0.85-1.75,0.59-2.73
					c1.9,0.75,4.57,0.31,6.05-0.24c-0.4-0.4-2.11-3-2.82-5.51c-0.86-3.04-4.03-14.01-5.45-18.51c3.85,4.43,8.27,11.94,8.55,15.89
					c0.12-0.56,0.38-1.24,0.61-1.98c0.89,1.85,3.03,5.63,3.39,6.52c0.37,0.94,0.48,1.55,0.21,2.79c-0.19,0.9-1.01,3.62-2.76,5.37
					c0,0.01,0.01,0.01,0.01,0.02c-7,2.6-14.36,4.22-21.92,4.42c-0.62,0.5-2.14,1.65-2.14,1.65s-1.52-1.14-2.14-1.65
					c-7.53-0.21-14.87-1.81-21.84-4.4c0-0.01,0.01-0.01,0.01-0.02c-1.75-1.75-2.78-4.49-2.98-5.39c-0.27-1.24-0.16-1.85,0.21-2.79
					c0.36-0.89,2.5-4.68,3.38-6.52c0.24,0.74,0.5,1.42,0.61,1.98c0.29-3.95,4.71-11.46,8.56-15.89
					C409.05,103.72,405.89,114.69,405.02,117.73 M409.45,119.92c-0.56,2.19-2.26,2.64-4.66,2.19c0.75-0.76,1.22-2.39,1.66-4.18
					c0.36-1.49,4.33-16.36,5.32-20.08c0.62-0.62,1.21-1.12,1.74-1.49c0.35-0.29,0.84-0.49,1.43-0.6
					C413.93,99.51,410.18,116.5,409.45,119.92 M419.14,96.04c1.12,0.3,2.22,0.75,3.14,1.33c-0.04,2.23-0.65,13.99-1.06,21.42
					c-0.17,2.18-0.32,3.82-0.42,4.37c-0.82,4.26-6.26,3.96-5.32-1.58C415.73,120.09,418.53,100.23,419.14,96.04 M414.01,121.81
					c-0.42,2.23-0.65,3.66-3.23,3.03c-1.67-0.4-0.21-3,0.1-4.83c0.27-1.58,4.33-21.37,4.92-24.36c0.73-0.04,1.54,0.02,2.37,0.18
					C417.65,97.96,414.02,121.75,414.01,121.81 M392.9,119.37c0.27-0.6,0.2-1.47,0.41-1.81c0.16-0.25,0.72-0.61,0.97-1.11
					c0.25-0.5,0.19-1.6,0.43-2.15c0.24-0.55,0.58-0.78,0.8-1.49c0.07-0.23,0.24-1.62,0.42-2.09c0.31-0.8,1.24-1.98,2.18-2.77
					c0,1.89,0.02,2.41,0.35,4.59c0.92-0.93,1.6-1.57,2.2-2.33c-0.03,1.4-0.16,1.73-0.68,2.77c-0.47,0.91-0.24,1.41-0.7,2.33
					c-0.45,0.93-1.16,1.12-1.55,1.72c-0.5,0.78-0.26,2.06-0.87,2.67c-0.41,0.41-0.61,0.75-0.46,1.83c-0.36-0.61-0.83-1-1.23-1.25
					c-0.77-0.49-1.81-0.38-2.23,0.55c-0.14-0.21-0.28-0.44-0.47-0.63C392.63,119.94,392.77,119.65,392.9,119.37 M393.01,65.35
					c0,1.8-1.59,3.61-3.57,5.07c0.26-0.97,0.41-2.04,0.41-3.27V60.6c0-1.05-0.08-2.55,0.08-3.74c1.45-1.08,2.48-2.26,3.19-3.48
					C393.11,57.61,393.01,64.11,393.01,65.35 M389.84,72.9c1.49-1.12,2.58-2.37,3.23-3.54c-0.03,2.94-0.07,5.64-0.07,6.39
					c0,1.67-1.36,3.35-3.15,4.75v-5.4C389.86,74.47,389.83,73.68,389.84,72.9 M393,90.91c0,1.67-1.36,3.34-3.15,4.74V91.8
					c0-0.93-0.07-6.08,0.03-8.54c1.49-1.14,2.58-2.41,3.22-3.58C393.09,83.89,393,89.74,393,90.91 M387.82,61.31v5.42
					c0,3.52-1.75,5.74-3.64,6.96c0.37-1.1,0.6-2.37,0.6-3.85v-7.98c0-0.42,0-0.87,0.01-1.31c1-0.62,1.83-1.33,2.51-2.11
					c0.22-0.1,0.42-0.21,0.62-0.32C387.85,58.89,387.82,59.91,387.82,61.31 M384.68,87.84c0.06-0.51,0.09-1.05,0.09-1.62v-7.98
					c0-0.6-0.01-1.27,0.05-1.92c0.77-0.46,1.54-1.03,2.23-1.73c0.27-0.13,0.53-0.27,0.78-0.41c-0.01,0.48-0.01,1.01-0.01,1.62v5.42
					C387.82,84.43,386.36,86.56,384.68,87.84 M387.82,92.51v5.42c0,3.15-1.4,5.25-3.05,6.54v-6.69c0-0.68-0.01-4.68,0.07-6.97
					c1.09-0.65,2.15-1.51,3.03-2.66C387.83,89.62,387.82,91.5,387.82,92.51 M382.74,80.4v5.39c0,3.64-1.87,5.88-3.82,7.08
					c0.03-0.39,0.04-0.78,0.04-1.2v-9.34c0-0.3,0-1.66,0-2.88c0.75-0.39,1.52-0.88,2.25-1.47c0.47-0.17,1.01-0.38,1.58-0.62
					C382.79,78.35,382.74,78.34,382.74,80.4 M382.74,99.93v5.4c0,3.6-1.83,5.84-3.78,7.05v-9.23c0-0.38,0-4.81,0.01-7.32
					c1.35-0.71,2.74-1.68,3.82-3.11C382.77,94.82,382.74,98.36,382.74,99.93 M378.51,76.72c0.29-0.99,0.45-2.11,0.45-3.39v-9.93
					c0.68-0.35,1.37-0.78,2.03-1.29c0.63-0.16,1.21-0.35,1.76-0.56c-0.03,0.62-0.01,1.36-0.01,2.48v5.39
					C382.74,73.29,380.61,75.58,378.51,76.72 M376.92,85.29v5.95c0,4.02-2.47,6.58-4.46,7.49c0.27-0.97,0.43-2.07,0.43-3.31v-0.13
					c0,0.01-0.01,0.01-0.01,0.01c0-0.14,0.01-0.27,0.01-0.41v-2.16v-0.01v-3.47c0-1.44-0.08-4.18-0.04-6.16
					c1.19-0.59,2.43-1.38,3.49-2.5c0.21-0.09,0.44-0.17,0.68-0.26C376.96,82,376.92,84.23,376.92,85.29 M376.92,106.11v5.95
					c0,4.27-2.73,6.67-4.43,7.41c0.39-0.51,0.4-1.7,0.4-3.77v-2.16v-0.02v-3.46c0-0.66-0.02-4.19-0.03-8.58
					c1.41-0.63,2.96-1.55,4.15-3.12C376.96,101.27,376.92,105.07,376.92,106.11 M372.85,67.04c1.19-0.59,2.44-1.38,3.5-2.51
					c0.21-0.08,0.44-0.17,0.67-0.26c-0.05,0.75-0.09,1.63-0.09,2.68v5.95c0,4.09-2.36,6.42-4.56,7.48c0.33-1.05,0.53-2.25,0.53-3.64
					V70.9C372.89,69.59,372.83,68.28,372.85,67.04 M366.01,83.92c0.39-0.51,0.81-1.9,0.81-3.97v-9.53c1.08-0.54,2.2-1.24,3.18-2.22
					c0.29-0.11,0.61-0.22,0.95-0.35c-0.06,0.77-0.1,1.62-0.1,2.59v5.86C370.86,80.57,368.29,82.93,366.01,83.92 M370.86,88.78
					c0,1.11-0.1,6.83-0.1,7.52c0,2.97-2.72,5.41-4.75,6.29c0.39-0.5,0.81-1.9,0.81-3.97V86.46c1.08-0.54,2.2-1.24,3.18-2.21
					c0.31-0.11,0.64-0.24,1.01-0.38C370.91,85.45,370.86,87.55,370.86,88.78 M370.86,109.61v6.79c0,0.85-0.08,3.35-0.09,6.22
					c0,0,0,0,0,0v4.56c0,2.86-2.72,5.41-4.75,6.28c0.39-0.51,0.81-1.9,0.81-3.97v-24.34c1.26-0.63,2.59-1.49,3.68-2.74
					c0.12-0.05,0.25-0.09,0.39-0.15C370.87,106.07,370.86,109.03,370.86,109.61 M410.8,12.54l-0.01-0.01
					c-0.53,0.16-3.33,0.64-3.69,0.29c0.62-0.32,1.03-0.51,2.21-1.25c0.86,0.07,1.68,0.59,3.01,1.39
					C411.58,12.65,411.51,12.4,410.8,12.54 M484.37,87.34c0.58,0.22,1.09,0.39,1.49,0.56c-1.6-2.42-1.49-6.34-1.49-7.26V71.3
					c0.58,0.22,1.09,0.4,1.49,0.56c-1.6-2.42-1.49-6.34-1.49-7.26V42.84c0-6.02-9.2-20.6-16.98-20.79c-5.52-0.13-12,7.63-19.93,5.62
					c-2.55-0.66-4.57-3.39-6.25-6.77c-2.96-6.03-5.8-14.11-12.99-18.78c-7.96-5.17-17.13,0.61-18.19,1.52
					c-0.9,0.83-2.34,3.31-3.1,3.7c-2.49,1.3-2.9,3.48-2.9,4.31c0,0.83,0.18,2.84,1.7,3.98c-0.21-0.98-0.26-1.53-0.04-2.03
					c0.99,0.17,3.17,0.61,4.58,0.03c0.69,0.69,2.35,2.02,3.06,3.39c1.01,1.9,1.01,2.19,1.01,2.94c0,1.93-0.9,4.69-3.65,6.5
					c-2.89,2.06-9.72,3.22-18.27,0.29c-4.63-1.58-6.53-4.79-10.67-4.69c-7.78,0.2-16.98,14.78-16.98,20.79v21.75
					c0,0.93,0.12,4.84-1.48,7.26c0.4-0.16,0.91-0.34,1.48-0.56v9.34c0,0.92,0.12,4.84-1.48,7.26c0.4-0.16,0.91-0.34,1.48-0.56v11.98
					c0,0.93,0.12,4.84-1.48,7.27c0.4-0.16,0.91-0.32,1.48-0.54v24.14c0,0.69,0.07,3.07-0.57,5.23c-0.22,0.73,0.27,1.59,1.03,1.29
					c3.12-1.24,7.65-3.67,7.65-10.44v-3.81c2.24-0.98,4.92-2.72,5.78-6.95c2.54-1.26,5.35-3.45,5.97-7.87
					c2.6-1.51,5.18-4.13,5.21-9.19c2.26-1.71,3.6-3.72,3.87-5.28c0.19-1.05,0.31-3.55,0.37-6.45c1.64-1.19,2.81-2.55,3.49-3.79
					c-0.27,6.28-1.52,14.72-4.47,26.42c0.52,0,1.22-0.12,1.93-0.28c-0.39,2.36-2.4,7.97-3.74,10.52c-0.18-0.01-0.37-0.01-0.59,0.02
					c-0.44,0.08-0.76,0.5-0.98,1.03c-0.6-0.92-1.36-2.42-3.13-1.84c-0.92,0.3-1.25,1.02-1.33,1.78c-1.47,0.92-11.43,7.1-11.43,7.1
					v15.4c14.79,8.76,31.08,14.04,48.67,14.4c0.57,0.58,2.14,1.77,2.14,1.77s1.56-1.19,2.14-1.77c17.58-0.36,33.87-5.64,48.67-14.4
					v-15.4c0,0-10.8-6.71-11.58-7.2c-0.09-0.73-0.44-1.4-1.32-1.69c-1.77-0.58-2.52,0.92-3.13,1.84c-0.21-0.53-0.53-0.95-0.98-1.03
					c-0.21-0.03-0.41-0.03-0.58-0.02c-1.34-2.55-3.35-8.16-3.75-10.52c0.71,0.17,1.41,0.28,1.93,0.28
					c-2.96-11.69-4.21-20.13-4.47-26.42c0.67,1.24,1.84,2.59,3.47,3.78c0.06,2.9,0.18,5.42,0.36,6.47c0.27,1.56,1.62,3.57,3.89,5.29
					c0.03,5.06,2.61,7.68,5.21,9.19c0.62,4.42,3.43,6.6,5.97,7.87c0.87,4.23,3.54,5.97,5.79,6.95v3.81c0,6.69,4.43,9.15,7.54,10.4
					c0.8,0.32,1.45-0.29,1.25-0.87c-0.77-2.27-0.7-4.88-0.7-5.62v-24.12c0.58,0.22,1.09,0.35,1.49,0.52
					c-1.6-2.43-1.49-6.34-1.49-7.27V87.34z M462.09,140.82c-0.21,0.08-0.42,0.17-0.64,0.25c-0.06-0.15-0.12-0.3-0.18-0.45
					c0.14-0.27,0.28-0.54,0.42-0.8c0.29,0.1,0.58,0.2,0.87,0.29c0.06,0.15,0.12,0.3,0.18,0.44
					C462.53,140.65,462.31,140.73,462.09,140.82 M461.09,138.26c-0.41,0.81-0.83,1.61-1.26,2.41c0.11,0.3,0.22,0.6,0.33,0.9
					c-0.44,0.16-0.88,0.32-1.32,0.48c-0.79-2.21-1.57-4.42-2.36-6.63c-0.12-0.34-0.11-0.73,0.33-1.01
					c-0.79-0.31-1.57-0.63-2.34-0.95c1.03,3.01,2.05,6.03,3.08,9.05c0.13,0.38,0.26,0.76,0.39,1.14c0.33-0.11,0.67-0.23,1-0.35
					l0.32-0.11c1.1-0.39,2.2-0.81,3.3-1.24c0.65-0.26,1.3-0.52,1.95-0.79c-0.28-0.66-0.56-1.33-0.84-1.99
					C462.79,138.87,461.93,138.57,461.09,138.26 M470.93,138.18c0.42-0.21,0.84-0.42,1.25-0.64c-1.27-2.44-2.54-4.87-3.81-7.31
					c-0.17-0.32-0.21-0.71,0.19-1.05c-0.83-0.19-1.66-0.4-2.48-0.61c1.43,2.85,2.87,5.7,4.3,8.54
					C470.57,137.46,470.75,137.82,470.93,138.18 M448.4,65.38c0.02,0.01,0.02,0.03,0.02,0.05c-0.01,0.02-0.02,0.04-0.04,0.04
					l-1.27,0.28l-0.28,1.1c-0.01,0.01-0.02,0.03-0.05,0.04h-0.01c-0.02,0-0.04-0.01-0.04-0.03l-0.63-1.02l-1.27-0.03
					c-0.02,0-0.04-0.02-0.05-0.04c-0.01-0.02-0.01-0.04,0.01-0.06l0.8-0.94l-0.32-1.18c0-0.02,0-0.04,0.02-0.06
					c0.02-0.02,0.04-0.02,0.06-0.01l1.15,0.51l1-0.65c0.01-0.01,0.02-0.01,0.03-0.01s0.02,0.01,0.03,0.01v0
					c0.01,0.01,0.02,0.03,0.02,0.05l-0.22,1.11L448.4,65.38z M435.71,78.78l-0.56-2.17c-0.01-0.02-0.03-0.03-0.05-0.04
					c-0.02-0.01-0.04,0.01-0.05,0.02c0,0-1.1,1.6-1.44,2.04c-0.56-0.02-2.5-0.16-2.51-0.16c-0.02,0-0.04,0.01-0.05,0.03
					c-0.01,0.01,0,0.03,0.01,0.06l1.35,1.8c-2.42,0.92-5.05,1.44-7.8,1.44c-2.84,0-5.55-0.55-8.04-1.54l1.28-1.7
					c0.02-0.02,0.02-0.04,0.01-0.06c-0.02-0.02-0.04-0.03-0.05-0.03c0,0-1.96,0.15-2.51,0.16c-0.34-0.44-1.44-2.04-1.44-2.04
					c-0.01-0.02-0.03-0.03-0.05-0.02c-0.02,0.01-0.04,0.02-0.05,0.04l-0.52,1.99c-4.45-2.71-7.87-6.96-9.51-12l2.04-0.05
					c0.02,0,0.04-0.02,0.05-0.04c0.01-0.02,0.01-0.04-0.01-0.06c0,0-1.27-1.44-1.64-1.86c0.14-0.55,0.68-2.39,0.68-2.4
					c0.01-0.02,0-0.04-0.01-0.05c-0.02-0.02-0.04-0.02-0.06-0.01l-1.89,0.84c-0.15-1.02-0.23-2.07-0.23-3.13
					c0-4.46,1.34-8.62,3.64-12.09l1.24,1.48c0.01,0.01,0.02,0.02,0.04,0.02c0,0,0.01,0,0.01,0c0.02,0,0.04-0.02,0.04-0.04
					c0,0,0.33-1.9,0.44-2.43c0.53-0.23,2.35-0.94,2.35-0.94c0.02-0.01,0.03-0.02,0.04-0.04c0-0.02-0.01-0.04-0.03-0.05l-1.79-0.93
					c3.57-3.8,8.47-6.32,13.95-6.83l-0.4,2.04c0,0.02,0.01,0.04,0.02,0.06c0.01,0.01,0.02,0.01,0.03,0.01c0.01,0,0.02,0,0.03,0
					c0,0,1.69-0.97,2.18-1.22c0.49,0.25,2.19,1.21,2.19,1.22c0.02,0.01,0.04,0,0.06-0.01c0.02-0.01,0.03-0.04,0.02-0.05l-0.4-2.07
					c5.56,0.43,10.54,2.93,14.18,6.74l-2,1.04c-0.02,0.01-0.04,0.03-0.03,0.05c0,0.02,0.02,0.04,0.04,0.05c0,0,1.82,0.71,2.35,0.94
					c0.11,0.53,0.43,2.43,0.43,2.43c0.01,0.02,0.02,0.04,0.04,0.04c0.01,0,0.01,0,0.01,0c0.02,0,0.03-0.01,0.04-0.02l1.42-1.69
					c2.38,3.51,3.78,7.75,3.78,12.3c0,1.11-0.09,2.2-0.25,3.27l-2.19-0.97c-0.02-0.01-0.05,0-0.06,0.01
					c-0.02,0.02-0.03,0.04-0.02,0.06c0,0.01,0.54,1.85,0.69,2.4c-0.37,0.43-1.64,1.86-1.64,1.86c-0.02,0.02-0.02,0.04-0.01,0.06
					c0.01,0.02,0.03,0.04,0.05,0.04l2.35,0.06C443.82,71.76,440.3,76.08,435.71,78.78 M436.29,80.14c-0.01,0.01-0.01,0.02-0.02,0.03
					l-1,0.54l0.01,1.28c0,0.02-0.01,0.04-0.03,0.05c-0.01,0-0.02,0-0.03,0c-0.02,0-0.03,0-0.03-0.01l-1.01-0.8l-0.62,0.26
					l-0.42,0.18h0c0,0,0,0-0.01,0c-0.02,0-0.04,0-0.05-0.01c-0.01-0.01,0-0.02-0.01-0.03c-0.01-0.01-0.01-0.02-0.01-0.03l0.17-0.46
					l0.24-0.64l-0.32-0.42h0l-0.44-0.58c0-0.01,0-0.02,0-0.03c0-0.01-0.01-0.02,0-0.03c0.01-0.01,0.02-0.01,0.03-0.02
					c0.01,0,0.01-0.01,0.02-0.01l1.21,0.03l0.74-0.98c0.01-0.02,0.03-0.02,0.05-0.02c0.02,0.01,0.04,0.02,0.04,0.04c0,0,0,0,0,0l0,0
					l0.19,0.71l0.13,0.51l0.84,0.28l0.29,0.09c0.02,0.01,0.03,0.03,0.04,0.05C436.3,80.12,436.29,80.13,436.29,80.14 M416.17,79.46
					c0,0.01,0.01,0.02,0,0.03l-0.43,0.58l-0.32,0.43l0.18,0.47l0.23,0.63c0.01,0.02,0,0.05-0.01,0.06c-0.01,0-0.01,0-0.01,0
					c-0.01,0.01-0.03,0.01-0.05,0.01l-0.28-0.12l-0.55-0.23c0.01,0,0.02,0.01,0.03,0.01l-0.24-0.1l-0.38,0.31l-0.63,0.49
					c-0.01,0.01-0.02,0.02-0.04,0.02c-0.01,0-0.01,0-0.01,0c0,0-0.01,0-0.02,0c-0.02-0.01-0.03-0.03-0.03-0.05l0.01-1.28l-0.99-0.54
					c-0.02-0.01-0.03-0.03-0.03-0.06h0c0-0.02,0.02-0.04,0.04-0.05l0.56-0.19l0.56-0.19l0.17-0.66l0.14-0.56
					c0.01-0.02,0.03-0.03,0.05-0.04c0.02,0,0.04,0,0.06,0.02h0l0.37,0.49l0.37,0.49l1.2-0.03c0.02,0,0.04,0.01,0.05,0.03
					C416.18,79.44,416.17,79.45,416.17,79.46 M402.16,66.87c-0.01,0.02-0.03,0.03-0.04,0.03h-0.01c-0.02,0-0.04-0.03-0.05-0.04
					l-0.28-1.1l-1.26-0.28c-0.02-0.01-0.03-0.02-0.04-0.04c-0.01-0.02,0-0.04,0.02-0.05l1.02-0.81l0,0l-0.05-0.24c0,0,0,0.01,0,0.01
					l-0.17-0.88c-0.01-0.01,0-0.03,0.01-0.04c0,0,0.01-0.01,0.01-0.02c0.02-0.01,0.04-0.01,0.06,0l1,0.65l0.62-0.27l0.53-0.24
					c0.03-0.01,0.04-0.01,0.06,0.01c0.02,0.01,0.02,0.04,0.02,0.05l-0.32,1.19l0.8,0.94c0.01,0.02,0.02,0.04,0.01,0.06
					c-0.01,0.02-0.03,0.03-0.05,0.03l-1.26,0.03L402.16,66.87z M405,46.53l0.68-0.91l-0.57-1.16c-0.01-0.02-0.01-0.04,0-0.06
					c0.02-0.02,0.04-0.02,0.05-0.02l1.28,0.29l0.74-0.87c0.02-0.02,0.04-0.02,0.06-0.02c0.02,0.01,0.03,0.02,0.03,0.05l0.09,1.18
					l1.13,0.59c0.02,0.01,0.03,0.03,0.03,0.05c0,0.02-0.01,0.04-0.03,0.05l-1.11,0.49l-0.24,1.21c-0.01,0.02-0.02,0.04-0.04,0.04
					h-0.01c-0.02,0-0.04-0.01-0.04-0.02l-0.3-0.36l-0.51-0.61l-1.13,0.14l-0.05,0.01c-0.03,0-0.05-0.01-0.06-0.03
					C404.98,46.57,404.98,46.55,405,46.53 M422.67,36.35c0.01-0.01,0.02-0.02,0.04-0.02l1.13-0.05l0.56-1.17
					c0.01-0.02,0.03-0.03,0.05-0.03c0.02,0,0.04,0.01,0.05,0.03l0.56,1.17l0.09,0.01h0l0.77,0.04h0c0.09,0,0.19,0.01,0.28,0.02
					c0.02,0.01,0.03,0.02,0.03,0.03h0c0.01,0.02,0.01,0.05-0.01,0.06l-0.85,0.82l0.25,1.24c0,0.02-0.01,0.04-0.02,0.05
					c-0.01,0.01-0.02,0.01-0.03,0.01c-0.01,0-0.02,0-0.03-0.01l-1.09-0.55l-1.09,0.55c-0.02,0.01-0.04,0.01-0.06-0.01
					c-0.02-0.01-0.03-0.04-0.02-0.05l0.11-0.58l0.13-0.67l-0.85-0.82c-0.01-0.02-0.02-0.04-0.01-0.06
					C422.66,36.36,422.66,36.36,422.67,36.35 M441.04,45.28l0.49-0.25l0.09-1.19c0-0.02,0.02-0.04,0.04-0.05
					c0.01-0.01,0.02-0.01,0.03,0c0.01,0,0.02,0.01,0.03,0.02l0.74,0.87l0.1-0.02l1.17-0.27c0.02,0,0.04,0,0.06,0.02
					c0.01,0.02,0.01,0.04,0.01,0.06l-0.57,1.16l0.67,0.91c0.02,0.02,0.02,0.04,0.01,0.06c-0.01,0.02-0.03,0.03-0.05,0.03l-1.18-0.15
					l-0.82,0.96c-0.01,0.02-0.03,0.02-0.04,0.02c-0.01,0-0.01,0-0.01,0c-0.02-0.01-0.03-0.02-0.04-0.04l-0.25-1.21l-1.11-0.49
					c-0.02-0.01-0.04-0.03-0.04-0.05c0-0.02,0.01-0.04,0.03-0.05L441.04,45.28z M448.62,61.76c0-0.02-0.01-0.04-0.02-0.05
					c-0.02-0.01-0.04-0.01-0.06,0c0,0-0.19,0.14-0.46,0.33c0.07-0.73,0.11-1.46,0.11-2.2c0-4.49-1.27-8.68-3.46-12.26
					c0.44,0.08,0.78,0.13,0.78,0.13c0.02,0,0.04,0,0.06-0.02c0.01-0.02,0.01-0.04,0-0.06c0,0-1.1-1.63-1.42-2.08
					c0.25-0.51,1.01-2.19,1.01-2.19c0.01-0.02,0.01-0.04-0.01-0.06c-0.01-0.02-0.04-0.02-0.05-0.02l-2.33,0.53
					c-0.37-0.44-1.68-1.89-1.68-1.89c-0.02-0.02-0.04-0.02-0.06-0.02c-0.02,0.01-0.04,0.03-0.04,0.05l-0.07,0.89
					c-3.61-3.46-8.31-5.78-13.53-6.4c0.4-0.36,0.75-0.67,0.75-0.67c0.02-0.01,0.02-0.04,0.02-0.06c-0.01-0.02-0.02-0.03-0.05-0.03
					c0,0-1.98-0.14-2.53-0.16c-0.24-0.5-1.07-2.14-1.07-2.14l-0.02-0.02c-0.01-0.01-0.03-0.02-0.05-0.01
					c-0.02,0-0.03,0.02-0.03,0.03c-0.01,0-0.83,1.64-1.06,2.14c-0.55,0.03-2.53,0.16-2.53,0.16c-0.03,0-0.05,0.02-0.05,0.04
					c-0.01,0.02,0,0.05,0.02,0.06c0,0,0.36,0.32,0.78,0.7c-5.25,0.69-9.95,3.1-13.53,6.65l-0.09-1.18
					c-0.01-0.02-0.02-0.04-0.04-0.05c-0.02-0.01-0.04,0-0.06,0.02c0,0-1.31,1.45-1.68,1.89l-2.33-0.53c-0.02,0-0.04,0.01-0.05,0.02
					c-0.01,0.02-0.02,0.04-0.01,0.06c0,0,0.76,1.69,1.01,2.19c-0.33,0.44-1.42,2.08-1.42,2.08c-0.02,0.02-0.02,0.04,0,0.07
					c0.01,0.02,0.03,0.02,0.06,0.02c0,0,0.54-0.09,1.13-0.19c-2.21,3.59-3.49,7.81-3.49,12.32c0,0.83,0.05,1.64,0.13,2.45
					c-0.44-0.31-0.8-0.57-0.8-0.57c-0.02-0.02-0.04-0.02-0.06,0c-0.02,0.01-0.03,0.03-0.03,0.05c0,0,0.27,1.93,0.38,2.49l-1.89,1.5
					c-0.02,0.02-0.02,0.03-0.02,0.06c0.01,0.02,0.02,0.04,0.04,0.05c0,0,1.81,0.45,2.36,0.57c0.14,0.54,0.73,2.4,0.73,2.41
					c0.01,0.02,0.02,0.04,0.05,0.04h0c0.02,0,0.04-0.01,0.05-0.03c0,0,0.23-0.42,0.5-0.89c1.75,4.77,5.01,8.82,9.18,11.58
					c-0.54,0.15-1.01,0.29-1.01,0.29c-0.02,0.01-0.04,0.03-0.04,0.05c0,0.02,0.01,0.04,0.03,0.05c0,0,1.72,0.99,2.2,1.25
					c0,0.33,0.03,2.41,0.03,2.41c0,0.02,0.01,0.04,0.03,0.05c0.01,0,0.02,0.01,0.02,0.01c0.01,0,0.03-0.01,0.04-0.02l1.88-1.48
					l2.36,0.99c0.02,0.01,0.04,0.01,0.06-0.01c0.02-0.02,0.02-0.04,0.01-0.06c0,0-0.18-0.44-0.39-0.96
					c2.43,0.85,5.02,1.32,7.74,1.32c2.57,0,5.04-0.42,7.36-1.18c-0.18,0.46-0.33,0.83-0.33,0.83c-0.01,0.02,0,0.05,0.02,0.06
					c0.02,0.02,0.04,0.02,0.06,0.01l2.36-0.99l1.88,1.48c0.01,0.01,0.02,0.01,0.03,0.01c0.01,0,0.01,0,0.02,0
					c0.02-0.01,0.03-0.03,0.03-0.05c0,0,0.03-2.08,0.03-2.41c0.48-0.26,2.21-1.25,2.21-1.25c0.02-0.01,0.03-0.03,0.03-0.05
					c0-0.03-0.02-0.04-0.04-0.05c0,0-0.35-0.1-0.79-0.23c4.12-2.7,7.35-6.65,9.15-11.3c0.18,0.32,0.31,0.55,0.31,0.55
					c0.01,0.02,0.03,0.03,0.05,0.03h0.01c0.02,0,0.04-0.02,0.05-0.04c0,0,0.59-1.87,0.73-2.41c0.55-0.12,2.36-0.57,2.36-0.57
					c0.02,0,0.04-0.02,0.04-0.04c0.01-0.02,0-0.05-0.02-0.06l-1.88-1.5C448.35,63.7,448.62,61.76,448.62,61.76 M467.7,137.9
					c0.07,0.15,0.13,0.29,0.2,0.43c-0.21,0.1-0.43,0.2-0.65,0.3c-0.21,0.1-0.42,0.19-0.63,0.29c-0.07-0.15-0.13-0.29-0.2-0.43
					c0.13-0.28,0.26-0.55,0.38-0.83C467.11,137.73,467.4,137.82,467.7,137.9 M466.48,135.29c-0.12,0.28-0.25,0.56-0.37,0.84
					c-0.29-0.09-0.57-0.18-0.86-0.27c-0.85-1.89-1.71-3.78-2.56-5.66c-0.36,0.86-0.72,1.72-1.11,2.58c0.52-0.08,0.91,0.14,1.05,0.46
					c0.49,1.13,0.99,2.26,1.48,3.4c0.03,0.07,0.06,0.15,0.1,0.22c0.46,0.15,0.92,0.3,1.38,0.44c-0.2,0.44-0.41,0.88-0.62,1.32
					c0.29,0.66,0.57,1.32,0.86,1.98c0.65-0.28,1.29-0.57,1.93-0.86c0.64-0.3,1.28-0.6,1.91-0.91c-0.31-0.65-0.63-1.29-0.94-1.94
					c-0.47-0.13-0.94-0.25-1.4-0.39c0.19-0.45,0.38-0.89,0.57-1.33c-0.58-1.18-1.15-2.37-1.73-3.56c-0.15-0.31-0.07-0.76,0.34-1.1
					c-0.9-0.26-1.79-0.54-2.67-0.83C464.72,131.54,465.6,133.41,466.48,135.29 M437.97,139.09c-0.7-0.47-1.39-0.94-2.07-1.42
					c0.43,3.57,0.85,7.12,1.28,10.68c0.46-0.06,0.92-0.11,1.38-0.17c-0.37-2.72-0.73-5.45-1.09-8.17
					C437.41,139.65,437.48,139.28,437.97,139.09 M451.65,136.98c-0.1-0.35-0.07-0.73,0.38-0.99c-0.77-0.35-1.53-0.71-2.28-1.08
					c0.86,3.07,1.72,6.13,2.59,9.2c0.11,0.39,0.22,0.77,0.33,1.16c0.44-0.13,0.88-0.25,1.33-0.38
					C453.21,142.25,452.43,139.62,451.65,136.98 M429.83,146.57c-0.29-0.46-0.58-0.93-0.86-1.4c0.13,0,0.27-0.01,0.4-0.02
					c0.01-0.35,0.13-0.53,0.35-0.74c0.24,0.18,0.39,0.35,0.44,0.7c0.13-0.01,0.26-0.02,0.4-0.02
					C430.32,145.59,430.08,146.08,429.83,146.57 M432.97,139.66c0.51,0.07,0.67,0.42,0.7,0.78c0.22,2.33,0.43,4.67,0.65,7.01
					c-1.21,0.11-2.41,0.2-3.61,0.27c0.65-1.31,1.27-2.63,1.87-3.96c-0.52,0.04-1.04,0.08-1.57,0.11c-0.22-0.4-0.87-0.84-1.36-0.87
					c-0.47,0.08-1.08,0.58-1.25,1c-0.53,0.02-1.05,0.03-1.57,0.04c0.72,1.27,1.47,2.52,2.25,3.76c-1.18,0.05-2.35,0.07-3.53,0.08
					c0-1.2-0.01-2.39-0.02-3.59c-0.66,0.6-1.32,1.2-2,1.79c0.41,0,0.66,0.25,0.66,0.61c-0.01,0.99-0.02,1.99-0.03,2.98
					c0,0.66-0.63,1.2-1.4,1.18c-0.62-0.01-1.13-0.37-1.3-0.84c0.18,0.81,1.01,1.43,2.02,1.44c1.16,0.02,2.09-0.79,2.08-1.79
					c0-0.2,0-0.39,0-0.59c1.47-0.01,2.93-0.05,4.39-0.12c1.5-0.07,2.99-0.18,4.49-0.32c0.06-0.01,0.13-0.01,0.19-0.02
					c0.39-0.04,0.79-0.08,1.19-0.12c-0.38-3.57-0.76-7.13-1.14-10.7C434.12,138.43,433.55,139.05,432.97,139.66 M448.25,141.96
					c0.54-0.01,0.76,0.3,0.84,0.64c0.19,0.74,0.37,1.48,0.56,2.22c-1.98,0.5-3.98,0.94-5.99,1.32c-0.27,0.05-0.54,0.1-0.81,0.15
					c-0.42-0.25-0.83-0.5-1.23-0.76c0.94-0.96,1.52-2.65,1.17-4.08c-0.23,1.98-1.12,3.39-3.34,4.19c1.01,0.66,2.03,1.3,3.07,1.93
					c0.46-0.08,0.91-0.16,1.37-0.25c2.49-0.47,4.96-1.04,7.41-1.69c-0.51-1.92-1.02-3.85-1.53-5.77
					C449.27,140.57,448.77,141.27,448.25,141.96 M455.12,139.52c-0.45,0.77-0.91,1.55-1.38,2.31c0.38-0.12,0.71,0.04,0.82,0.38
					c0.29,0.95,0.59,1.9,0.88,2.85c0.2,0.63-0.26,1.34-1.01,1.56c-0.59,0.17-1.18-0.01-1.49-0.4c0.42,0.71,1.39,1.05,2.37,0.76
					c1.14-0.34,1.78-1.4,1.47-2.35C456.23,142.93,455.67,141.22,455.12,139.52 M408.42,7.87c-0.44,0-0.8,0.29-0.8,0.65
					c0,0.33,0.29,0.59,0.67,0.64c-0.03-0.05-0.05-0.11-0.05-0.17c0-0.27,0.33-0.49,0.75-0.49c0.08,0,0.16,0.01,0.23,0.03V8.53
					C409.22,8.17,408.86,7.87,408.42,7.87"/>
			</g>
		</g>
	</g>
</g>
</svg>
