<svg width="173" height="89" viewBox="0 0 173 89" fill="none" xmlns="http://www.w3.org/2000/svg">
<path d="M62.2129 35.4599C62.2129 35.6467 62.1755 35.7862 62.1019 35.8796C62.027 35.973 61.916 36.0191 61.7676 36.0191C61.6373 36.0191 61.5311 35.9718 61.4467 35.8796C61.3634 35.7862 61.3212 35.6467 61.3212 35.4599V19.7737C61.3212 19.5312 61.3718 19.3589 61.4744 19.2558C61.5758 19.154 61.7483 19.1018 61.9896 19.1018H65.3332C66.5592 19.1018 67.5534 19.2607 68.3148 19.5785C69.0762 19.8962 69.6337 20.3911 69.9872 21.063C70.3396 21.735 70.5169 22.6228 70.5169 23.7241C70.5169 24.5646 70.4144 25.2839 70.2104 25.8806C70.0053 26.4785 69.6856 26.9588 69.2488 27.3227C68.812 27.6866 68.2593 27.9631 67.5908 28.1487C67.7948 28.3173 67.9806 28.5404 68.1483 28.8206C68.316 29.1008 68.5103 29.5023 68.7335 30.025L70.9634 35.2077C71.0008 35.2634 71.0237 35.3192 71.0334 35.3762C71.043 35.432 71.0478 35.4878 71.0478 35.5448C71.0478 35.6564 71.0008 35.7595 70.9079 35.8529C70.815 35.9463 70.6943 35.9936 70.5459 35.9936C70.3227 35.9936 70.1561 35.8626 70.0439 35.6018L67.843 30.3355C67.6946 29.9619 67.5317 29.626 67.3555 29.3276C67.1782 29.0292 67.0165 28.823 66.8681 28.7115C66.7196 28.5999 66.5519 28.5295 66.3661 28.5016C66.1803 28.4737 65.846 28.4592 65.3634 28.4592H62.2141V35.4624L62.2129 35.4599ZM64.8602 27.6732C66.0681 27.6732 67.0153 27.5519 67.7031 27.3094C68.3896 27.0668 68.8783 26.6556 69.1655 26.0771C69.4539 25.4985 69.5975 24.7138 69.5975 23.7241C69.5975 22.2868 69.2958 21.2874 68.6913 20.7271C68.0868 20.1667 67.0056 19.8865 65.4442 19.8865H62.2117V27.6732H64.859H64.8602Z" fill="white"/>
<path d="M74.4192 31.1748C74.4192 32.5939 74.6882 33.6357 75.2276 34.298C75.7658 34.9614 76.6297 35.2925 77.8195 35.2925C78.4143 35.2925 78.9621 35.2137 79.4641 35.0548C79.9661 34.8959 80.4391 34.6485 80.8855 34.3125C81.0158 34.2191 81.1268 34.1718 81.2198 34.1718C81.3308 34.1718 81.4285 34.2143 81.513 34.298C81.5962 34.3817 81.6385 34.4896 81.6385 34.6206C81.6385 34.6958 81.6155 34.7698 81.5685 34.845C81.5214 34.9202 81.4249 35.0039 81.2765 35.0973C80.8119 35.415 80.287 35.6576 79.7018 35.825C79.1166 35.9936 78.471 36.0773 77.7652 36.0773C76.3341 36.0773 75.271 35.6855 74.5748 34.9008C73.8786 34.116 73.5299 32.9213 73.5299 31.3155V29.803C73.5299 28.1972 73.887 27.0025 74.6026 26.2178C75.3181 25.433 76.3812 25.0413 77.7929 25.0413C79.2047 25.0413 80.1893 25.4148 80.8578 26.162C81.192 26.5537 81.4382 27.0534 81.5962 27.6611C81.7543 28.2675 81.8327 28.9916 81.8327 29.8321C81.8327 30.0189 81.7724 30.1645 81.6517 30.2664C81.5311 30.3694 81.3682 30.4204 81.1643 30.4204H74.4204V31.1772L74.4192 31.1748ZM80.1314 26.7065C79.6475 26.1183 78.8584 25.8236 77.7628 25.8236C76.6671 25.8236 75.8261 26.1268 75.2964 26.7344C74.7667 27.3409 74.4747 28.3075 74.418 29.6332H80.9109C80.8735 28.2699 80.614 27.2948 80.1302 26.7065H80.1314Z" fill="white"/>
<path d="M88.5754 36.076C87.1817 36.076 86.1694 35.6746 85.5383 34.8717C84.906 34.0687 84.5911 32.7891 84.5911 31.0341V30.0262C84.5911 28.3451 84.9253 27.0947 85.5938 26.2723C86.2623 25.4512 87.2747 25.04 88.6309 25.04C90.2092 25.04 91.2879 25.5822 91.8635 26.6641C91.9009 25.9546 91.9564 25.5155 92.03 25.3481C92.1036 25.1795 92.2062 25.0958 92.3365 25.0958C92.4668 25.0958 92.5682 25.1431 92.643 25.2365C92.7166 25.3299 92.754 25.4512 92.754 25.6004V35.4878C92.754 36.3465 92.7311 37.0561 92.684 37.6164C92.6369 38.1768 92.5537 38.6437 92.433 39.0173C92.3123 39.3908 92.1495 39.7268 91.9455 40.0252C91.2022 41.0901 89.957 41.6213 88.211 41.6213C86.8173 41.6213 85.6843 41.2381 84.8107 40.4727C84.6997 40.3793 84.643 40.2666 84.643 40.1368C84.643 40.0252 84.6852 39.9269 84.7685 39.842C84.8517 39.7584 84.9495 39.7159 85.0605 39.7159C85.116 39.7159 85.1715 39.7292 85.2282 39.7584C85.2837 39.7862 85.3392 39.819 85.3959 39.8566C86.1392 40.5103 87.0961 40.8366 88.2665 40.8366C89.1401 40.8366 89.817 40.6874 90.3009 40.3878C90.7835 40.0895 91.1371 39.688 91.3603 39.1834C91.5835 38.6789 91.7223 38.11 91.779 37.4745C91.8345 36.8389 91.8623 36.1767 91.8623 35.4854V34.5054C91.23 35.5521 90.1344 36.0736 88.5742 36.0736L88.5754 36.076ZM91.5848 27.8976C91.4182 27.2814 91.1105 26.7817 90.6653 26.3985C90.22 26.0164 89.5504 25.8248 88.6587 25.8248C87.5811 25.8248 86.7823 26.1753 86.2623 26.8751C85.7422 27.575 85.4816 28.6726 85.4816 30.1669V31.2318C85.4816 32.6509 85.7326 33.683 86.2345 34.3271C86.7365 34.9711 87.5256 35.2937 88.6032 35.2937C89.6807 35.2937 90.5398 34.9626 91.0695 34.2992C91.5992 33.6369 91.8635 32.5951 91.8635 31.176V29.9437C91.8442 29.1966 91.7525 28.5149 91.5848 27.8988V27.8976Z" fill="white"/>
<path d="M100.502 36.0762C98.6629 36.0762 97.548 35.4139 97.1582 34.087C97.0834 33.8263 97.0327 33.5267 97.005 33.1907C96.9772 32.8547 96.9627 32.4254 96.9627 31.9026V25.6563C96.9627 25.4695 97.005 25.33 97.0882 25.2366C97.1715 25.1433 97.2789 25.0959 97.4092 25.0959C97.5576 25.0959 97.6686 25.1433 97.7434 25.2366C97.817 25.33 97.8544 25.4707 97.8544 25.6563V31.8189C97.8544 32.9396 97.9654 33.6953 98.1887 34.0882C98.3926 34.4994 98.6943 34.8026 99.0949 34.9991C99.4943 35.1956 99.9914 35.2926 100.586 35.2926C101.812 35.2926 102.676 34.9943 103.178 34.3963C103.401 34.1355 103.555 33.8129 103.638 33.4297C103.721 33.0476 103.763 32.5103 103.763 31.8189V25.6563C103.763 25.4695 103.806 25.33 103.889 25.2366C103.972 25.1433 104.079 25.0959 104.21 25.0959C104.358 25.0959 104.469 25.1433 104.544 25.2366C104.618 25.33 104.655 25.4707 104.655 25.6563V35.5158C104.655 35.665 104.618 35.7863 104.544 35.8797C104.469 35.9731 104.368 36.0192 104.238 36.0192C104.107 36.0192 104.001 35.9488 103.917 35.8093C103.833 35.6686 103.791 35.3375 103.791 34.8148C103.085 35.6553 101.988 36.0749 100.503 36.0749L100.502 36.0762Z" fill="white"/>
<path d="M109.754 35.096C109.513 34.7419 109.34 34.2507 109.239 33.6248C109.136 32.999 109.086 32.1451 109.086 31.062V19.6209C109.086 19.4341 109.128 19.2946 109.211 19.2012C109.295 19.1078 109.402 19.0605 109.532 19.0605C109.681 19.0605 109.792 19.1078 109.866 19.2012C109.94 19.2946 109.977 19.4353 109.977 19.6209V30.9783C109.977 32.025 110.02 32.8365 110.103 33.415C110.186 33.9935 110.344 34.4144 110.577 34.6752C110.809 34.9372 111.13 35.1142 111.539 35.2076C111.669 35.2452 111.766 35.2962 111.831 35.3617C111.896 35.4272 111.929 35.5157 111.929 35.6273C111.929 35.7389 111.886 35.8323 111.803 35.9075C111.72 35.9815 111.622 36.0191 111.511 36.0191C110.768 36.0191 110.183 35.711 109.755 35.0948L109.754 35.096Z" fill="white"/>
<path d="M120.678 28.8776C120.678 27.7205 120.497 26.9212 120.135 26.4821C119.773 26.0431 119.118 25.8236 118.171 25.8236C117.576 25.8236 117.028 25.9121 116.526 26.0892C116.024 26.2675 115.597 26.5331 115.244 26.8872C115.114 26.9988 114.993 27.0558 114.882 27.0558C114.771 27.0558 114.674 27.0134 114.59 26.9297C114.507 26.846 114.465 26.7478 114.465 26.6362C114.465 26.5052 114.52 26.3839 114.633 26.2723C115.115 25.843 115.635 25.53 116.193 25.3335C116.75 25.1371 117.373 25.0388 118.06 25.0388C118.821 25.0388 119.466 25.1468 119.996 25.3614C120.526 25.5761 120.911 25.8988 121.152 26.3281C121.32 26.6083 121.436 26.9685 121.501 27.4064C121.566 27.8454 121.599 28.5319 121.599 29.4646V35.5145C121.599 35.6637 121.566 35.7849 121.501 35.8783C121.436 35.9717 121.33 36.0178 121.18 36.0178C121.05 36.0178 120.952 35.9378 120.888 35.7801C120.823 35.6212 120.772 35.2343 120.735 34.6182C120.326 35.1033 119.82 35.4684 119.215 35.711C118.611 35.9535 117.892 36.0748 117.056 36.0748C115.959 36.0748 115.132 35.8177 114.576 35.3046C114.019 34.7916 113.74 34.0396 113.74 33.0499C113.74 31.7242 114.222 30.7527 115.189 30.1366C115.579 29.8758 116.118 29.6842 116.805 29.5629C117.491 29.4416 118.355 29.3809 119.396 29.3809H120.149C120.298 29.3809 120.474 29.3906 120.679 29.4088V28.8764L120.678 28.8776ZM120.093 30.1936C119.944 30.1754 119.619 30.1754 119.118 30.1936C117.445 30.213 116.285 30.4313 115.634 30.8522C114.984 31.2718 114.659 32.0335 114.659 33.1348C114.659 34.5733 115.476 35.2913 117.111 35.2913C118.171 35.2913 119.062 35.0487 119.786 34.5636C120.139 34.3392 120.381 34.1112 120.51 33.8771C120.641 33.6442 120.706 33.341 120.706 32.9662V30.2215C120.445 30.2215 120.241 30.2118 120.093 30.1936Z" fill="white"/>
<path d="M124.328 26.1049C124.18 26.1049 124.064 26.0722 123.979 26.0067C123.896 25.9412 123.854 25.843 123.854 25.7132C123.854 25.5834 123.896 25.4852 123.979 25.4197C124.063 25.3542 124.178 25.3214 124.328 25.3214H126.335L126.418 22.1837C126.418 21.8659 126.557 21.707 126.835 21.707C126.966 21.707 127.062 21.7495 127.127 21.8332C127.193 21.9169 127.225 22.0345 127.225 22.1837V25.3214H131.489C131.638 25.3214 131.754 25.359 131.838 25.433C131.921 25.5082 131.964 25.6113 131.964 25.7411C131.964 25.8527 131.921 25.9424 131.838 26.0067C131.755 26.0722 131.638 26.1049 131.489 26.1049H127.225V32.7151C127.225 33.6867 127.341 34.3586 127.574 34.7322C127.805 35.1057 128.219 35.2925 128.814 35.2925C129.13 35.2925 129.455 35.2367 129.789 35.1239C130.123 35.0123 130.467 34.8534 130.821 34.6473C130.858 34.6097 130.899 34.5866 130.946 34.5769C130.992 34.5672 131.025 34.5636 131.044 34.5636C131.155 34.5636 131.248 34.6012 131.323 34.6752C131.396 34.7504 131.434 34.8437 131.434 34.9553C131.434 35.1045 131.285 35.2683 130.987 35.4453C130.691 35.6236 130.323 35.7728 129.887 35.8929C129.45 36.0142 129.028 36.0748 128.619 36.0748C127.764 36.0748 127.17 35.8225 126.835 35.318C126.65 35.0572 126.519 34.7115 126.446 34.281C126.371 33.8516 126.335 33.3289 126.335 32.7127V26.1025H124.328V26.1049Z" fill="white"/>
<path d="M134.5 26.1886C135.186 25.4233 136.265 25.04 137.732 25.04C139.2 25.04 140.277 25.4233 140.965 26.1886C141.652 26.9552 141.997 28.1596 141.997 29.8018V31.3143C141.997 32.9577 141.653 34.1621 140.965 34.9274C140.277 35.694 139.2 36.076 137.732 36.076C136.265 36.076 135.186 35.694 134.5 34.9274C133.812 34.1621 133.468 32.9577 133.468 31.3143V29.8018C133.468 28.1584 133.812 26.954 134.5 26.1886ZM140.282 26.8193C139.734 26.1571 138.884 25.8248 137.732 25.8248C136.581 25.8248 135.731 26.1571 135.183 26.8193C134.635 27.4828 134.361 28.5234 134.361 29.9425V31.1748C134.417 32.6873 134.695 33.7522 135.197 34.3683C135.699 34.9845 136.544 35.2925 137.734 35.2925C138.923 35.2925 139.735 34.9614 140.283 34.298C140.831 33.6357 141.105 32.5939 141.105 31.1748V29.9425C141.105 28.5234 140.831 27.4828 140.283 26.8193H140.282Z" fill="white"/>
<path d="M150.523 25.2087C150.671 25.2087 150.782 25.2415 150.857 25.307C150.931 25.3725 150.968 25.4707 150.968 25.6005C150.968 25.7303 150.921 25.8297 150.829 25.894C150.736 25.9595 150.588 25.9923 150.383 25.9923C148.952 26.0481 147.939 26.3804 147.346 26.9868C146.751 27.5933 146.454 28.6254 146.454 30.0821V35.46C146.454 35.6468 146.417 35.7863 146.343 35.8797C146.268 35.9731 146.157 36.0192 146.009 36.0192C145.878 36.0192 145.772 35.9719 145.688 35.8797C145.605 35.7863 145.562 35.6468 145.562 35.46V25.6005C145.562 25.4513 145.6 25.33 145.673 25.2366C145.747 25.1433 145.85 25.0959 145.98 25.0959C146.11 25.0959 146.216 25.1942 146.301 25.3907C146.384 25.5872 146.435 26.0954 146.454 26.9177C147.271 25.7788 148.627 25.2087 150.523 25.2087Z" fill="white"/>
<path d="M151.527 25.797C151.507 25.7594 151.494 25.7133 151.485 25.6563C151.475 25.6005 151.47 25.5544 151.47 25.5156C151.47 25.4222 151.512 25.3337 151.596 25.25C151.679 25.1663 151.786 25.1238 151.916 25.1238C152.102 25.1238 152.251 25.2451 152.362 25.4877L155.818 34.7032L158.995 25.5156C159.068 25.2354 159.218 25.0959 159.441 25.0959C159.571 25.0959 159.678 25.1384 159.762 25.2221C159.845 25.3058 159.887 25.404 159.887 25.5156C159.887 25.5908 159.868 25.6842 159.832 25.7958L155.262 38.5407C155.114 38.9519 154.964 39.3109 154.816 39.619C154.668 39.9271 154.514 40.1842 154.356 40.3892C154.198 40.5941 154.026 40.7712 153.841 40.9216C153.673 41.0332 153.465 41.146 153.214 41.2576C152.963 41.3692 152.762 41.4262 152.614 41.4262C152.521 41.4262 152.446 41.3934 152.391 41.3279C152.335 41.2624 152.307 41.1739 152.307 41.0623C152.307 40.9313 152.335 40.8331 152.391 40.7688C152.446 40.7033 152.539 40.6524 152.669 40.6148C153.097 40.4656 153.468 40.166 153.784 39.7184C154.1 39.2697 154.388 38.6256 154.648 37.7851L155.317 35.796L151.527 25.7958V25.797Z" fill="white"/>
<path d="M61.5166 41.5147C61.5166 41.3279 61.5589 41.1884 61.6421 41.095C61.7254 41.0016 61.8328 40.9543 61.9631 40.9543C62.1115 40.9543 62.2225 41.0016 62.2973 41.095C62.3709 41.1884 62.4083 41.3291 62.4083 41.5147V57.27C62.4083 57.4568 62.3709 57.5963 62.2973 57.6897C62.2225 57.7831 62.1115 57.8292 61.9631 57.8292C61.8328 57.8292 61.7266 57.7819 61.6421 57.6897C61.5589 57.5963 61.5166 57.4568 61.5166 57.27V41.5147Z" fill="white"/>
<path d="M69.542 47.214C70.0994 46.9714 70.7776 46.8501 71.5763 46.8501C73.5275 46.8501 74.7064 47.653 75.1154 49.2589C75.1709 49.5015 75.2168 49.8471 75.2554 50.2959C75.2928 50.7434 75.3109 51.2674 75.3109 51.8641V57.27C75.3109 57.4567 75.2735 57.5962 75.1999 57.6896C75.1251 57.783 75.014 57.8291 74.8656 57.8291C74.7353 57.8291 74.6291 57.7818 74.5447 57.6896C74.4614 57.5962 74.4192 57.4567 74.4192 57.27V51.9478C74.4192 51.2759 74.3914 50.6974 74.3359 50.211C74.2804 49.7258 74.1959 49.362 74.0849 49.1182C73.6578 48.1285 72.8312 47.6336 71.6053 47.6336C70.9923 47.6336 70.4349 47.7319 69.9329 47.9271C69.4309 48.1236 69.0509 48.3989 68.7902 48.7531C68.567 49.0709 68.4089 49.4675 68.316 49.9442C68.2231 50.4208 68.1773 51.0879 68.1773 51.9466V57.2687C68.1773 57.4555 68.1398 57.595 68.0662 57.6884C67.9914 57.7818 67.8804 57.8279 67.732 57.8279C67.6017 57.8279 67.4955 57.7806 67.411 57.6884C67.3278 57.595 67.2856 57.4555 67.2856 57.2687V47.4092C67.2856 47.2601 67.323 47.1388 67.3966 47.0454C67.4702 46.952 67.5727 46.9047 67.7031 46.9047C67.8334 46.9047 67.9395 46.9847 68.024 47.1424C68.1073 47.3013 68.1592 47.7076 68.1773 48.3614C68.5296 47.8386 68.9857 47.4553 69.5432 47.2128L69.542 47.214Z" fill="white"/>
<path d="M78.0415 47.9138C77.8931 47.9138 77.7772 47.881 77.6928 47.8155C77.6095 47.75 77.5673 47.6518 77.5673 47.522C77.5673 47.3922 77.6095 47.294 77.6928 47.2285C77.776 47.163 77.8919 47.1303 78.0415 47.1303H80.0481L80.1314 43.9925C80.1314 43.6748 80.2714 43.5159 80.5489 43.5159C80.6792 43.5159 80.7757 43.5583 80.8421 43.642C80.9072 43.7257 80.9398 43.8433 80.9398 43.9925V47.1303H85.2029C85.3513 47.1303 85.4671 47.1679 85.5516 47.2418C85.6348 47.317 85.6771 47.4201 85.6771 47.5499C85.6771 47.6615 85.6348 47.7513 85.5516 47.8155C85.4683 47.881 85.3513 47.9138 85.2029 47.9138H80.9398V54.524C80.9398 55.4955 81.0557 56.1674 81.2885 56.541C81.5202 56.9146 81.9341 57.1014 82.529 57.1014C82.8451 57.1014 83.1697 57.0456 83.5039 56.9328C83.8382 56.8212 84.1821 56.6623 84.5356 56.4561C84.573 56.4185 84.614 56.3955 84.6611 56.3858C84.7069 56.376 84.7395 56.3724 84.7588 56.3724C84.8698 56.3724 84.9628 56.41 85.0376 56.484C85.1112 56.5592 85.1486 56.6526 85.1486 56.7642C85.1486 56.9134 85.0002 57.0771 84.7021 57.2542C84.4053 57.4325 84.0373 57.5816 83.6017 57.7017C83.1649 57.823 82.7425 57.8837 82.3335 57.8837C81.4792 57.8837 80.8843 57.6314 80.5501 57.1268C80.3643 56.8661 80.234 56.5204 80.1603 56.0898C80.0855 55.6604 80.0493 55.1377 80.0493 54.5216V47.9113H78.0427L78.0415 47.9138Z" fill="white"/>
<path d="M88.0734 52.9836C88.0734 54.4027 88.3425 55.4446 88.8819 56.1068C89.42 56.7703 90.284 57.1014 91.4737 57.1014C92.0686 57.1014 92.6164 57.0225 93.1184 56.8636C93.6203 56.7048 94.0933 56.4573 94.5398 56.1214C94.6701 56.028 94.7811 55.9807 94.874 55.9807C94.9851 55.9807 95.0828 56.0231 95.166 56.1068C95.2493 56.1905 95.2915 56.2984 95.2915 56.4294C95.2915 56.5046 95.2686 56.5786 95.2216 56.6538C95.1745 56.729 95.078 56.8127 94.9295 56.9061C94.465 57.2239 93.9401 57.4664 93.3549 57.6338C92.7697 57.8024 92.1241 57.8861 91.4182 57.8861C89.9872 57.8861 88.9241 57.4943 88.2279 56.7096C87.5317 55.9249 87.183 54.7302 87.183 53.1243V51.6119C87.183 50.006 87.5401 48.8113 88.2556 48.0266C88.9712 47.2419 90.0342 46.8501 91.446 46.8501C92.8577 46.8501 93.8424 47.2237 94.5108 47.9708C94.8451 48.3626 95.0912 48.8623 95.2493 49.4699C95.4074 50.0764 95.4858 50.8005 95.4858 51.641C95.4858 51.8278 95.4255 51.9733 95.3048 52.0752C95.1841 52.1783 95.0212 52.2292 94.8173 52.2292H88.0734V52.9861V52.9836ZM93.7869 48.5166C93.3042 47.9284 92.5139 47.6336 91.4182 47.6336C90.3226 47.6336 89.4816 47.9368 88.9519 48.5445C88.4222 49.1509 88.1302 50.1176 88.0734 51.4433H94.5663C94.5289 50.08 94.2695 49.1048 93.7857 48.5166H93.7869Z" fill="white"/>
<path d="M99.7778 56.9061C99.5365 56.5519 99.3639 56.0607 99.2626 55.4349C99.16 54.809 99.1093 53.9552 99.1093 52.8721V41.431C99.1093 41.2442 99.1515 41.1047 99.2348 41.0113C99.3181 40.9179 99.4255 40.8706 99.5558 40.8706C99.7042 40.8706 99.8152 40.9179 99.89 41.0113C99.9636 41.1047 100.001 41.2454 100.001 41.431V52.7884C100.001 53.8351 100.043 54.6465 100.127 55.2251C100.21 55.8036 100.368 56.2245 100.601 56.4852C100.832 56.7472 101.153 56.9243 101.562 57.0177C101.693 57.0553 101.789 57.1062 101.854 57.1717C101.92 57.2372 101.952 57.3258 101.952 57.4373C101.952 57.5489 101.91 57.6423 101.827 57.7175C101.743 57.7915 101.646 57.8291 101.535 57.8291C100.791 57.8291 100.206 57.521 99.779 56.9049L99.7778 56.9061Z" fill="white"/>
<path d="M105.434 56.9061C105.193 56.5519 105.021 56.0607 104.919 55.4349C104.817 54.809 104.766 53.9552 104.766 52.8721V41.431C104.766 41.2442 104.808 41.1047 104.892 41.0113C104.975 40.9179 105.082 40.8706 105.212 40.8706C105.361 40.8706 105.472 40.9179 105.547 41.0113C105.62 41.1047 105.658 41.2454 105.658 41.431V52.7884C105.658 53.8351 105.7 54.6465 105.783 55.2251C105.866 55.8036 106.025 56.2245 106.257 56.4852C106.489 56.7472 106.81 56.9243 107.219 57.0177C107.349 57.0553 107.446 57.1062 107.511 57.1717C107.576 57.2372 107.609 57.3258 107.609 57.4373C107.609 57.5489 107.567 57.6423 107.483 57.7175C107.4 57.7915 107.302 57.8291 107.191 57.8291C106.448 57.8291 105.863 57.521 105.436 56.9049L105.434 56.9061Z" fill="white"/>
<path d="M111.398 42.6899C111.509 42.8488 111.565 43.0865 111.565 43.4043C111.565 43.722 111.51 43.9646 111.398 44.132C111.287 44.3006 111.129 44.3843 110.923 44.3843C110.718 44.3843 110.561 44.3006 110.449 44.132C110.338 43.9634 110.282 43.7208 110.282 43.4043C110.282 43.0877 110.337 42.8488 110.449 42.6899C110.56 42.531 110.718 42.4521 110.923 42.4521C111.129 42.4521 111.285 42.5322 111.398 42.6899ZM110.478 47.4662C110.478 47.2976 110.52 47.163 110.604 47.0599C110.687 46.958 110.794 46.9058 110.925 46.9058C111.073 46.9058 111.184 46.958 111.259 47.0599C111.333 47.163 111.37 47.2976 111.37 47.4662V57.2699C111.37 57.4567 111.333 57.5962 111.259 57.6896C111.184 57.783 111.073 57.8291 110.925 57.8291C110.794 57.8291 110.688 57.7818 110.604 57.6896C110.52 57.5962 110.478 57.4567 110.478 57.2699V47.4662Z" fill="white"/>
<path d="M119.118 57.8861C117.724 57.8861 116.712 57.4846 116.081 56.6817C115.448 55.8788 115.133 54.5992 115.133 52.8442V51.8363C115.133 50.1552 115.468 48.9047 116.136 48.0824C116.805 47.2613 117.817 46.8501 119.173 46.8501C120.752 46.8501 121.83 47.3923 122.406 48.4741C122.443 47.7646 122.499 47.3255 122.574 47.1582C122.647 46.9896 122.75 46.9059 122.88 46.9059C123.01 46.9059 123.112 46.9532 123.186 47.0466C123.26 47.14 123.298 47.2613 123.298 47.4105V57.2979C123.298 58.1566 123.275 60.2391 123.228 60.7994C123.18 61.3598 123.097 61.8268 122.977 62.2003C122.856 62.5739 122.693 62.9099 122.489 63.2082C121.746 64.2731 120.501 64.8044 118.755 64.8044C117.361 64.8044 116.228 64.4211 115.354 63.6558C115.243 63.5624 115.187 63.4496 115.187 63.3198C115.187 63.2082 115.229 63.11 115.312 63.0251C115.395 62.9414 115.493 62.8989 115.604 62.8989C115.66 62.8989 115.715 62.9123 115.772 62.9414C115.827 62.9693 115.883 63.002 115.939 63.0396C116.683 63.6934 117.64 64.0196 118.81 64.0196C119.684 64.0196 120.361 63.8705 120.844 63.5709C121.327 63.2725 121.681 62.871 121.904 62.3665C122.127 61.8619 122.266 61.2931 122.321 60.6575C122.377 60.022 122.405 57.9868 122.405 57.2966V56.3166C121.772 57.3634 120.677 57.8849 119.117 57.8849L119.118 57.8861ZM122.127 49.7064C121.959 49.0903 121.653 48.5906 121.208 48.2073C120.762 47.8253 120.093 47.6336 119.201 47.6336C118.123 47.6336 117.325 47.9841 116.805 48.684C116.285 49.3838 116.024 50.4815 116.024 51.9757V53.0406C116.024 54.4597 116.275 55.4919 116.777 56.1359C117.279 56.78 118.068 57.1026 119.145 57.1026C120.223 57.1026 121.082 56.7715 121.612 56.108C122.142 55.4458 122.406 54.4039 122.406 52.9849V51.7526C122.387 51.0054 122.295 50.3238 122.127 49.7076V49.7064Z" fill="white"/>
<path d="M127.756 52.9836C127.756 54.4027 128.025 55.4446 128.564 56.1068C129.103 56.7703 129.967 57.1014 131.156 57.1014C131.751 57.1014 132.299 57.0225 132.801 56.8636C133.303 56.7048 133.776 56.4573 134.222 56.1214C134.353 56.028 134.464 55.9807 134.557 55.9807C134.668 55.9807 134.765 56.0231 134.849 56.1068C134.932 56.1905 134.974 56.2984 134.974 56.4294C134.974 56.5046 134.951 56.5786 134.904 56.6538C134.857 56.729 134.761 56.8127 134.612 56.9061C134.148 57.2239 133.623 57.4664 133.037 57.6338C132.452 57.8024 131.807 57.8861 131.101 57.8861C129.67 57.8861 128.607 57.4943 127.91 56.7096C127.214 55.9249 126.866 54.7302 126.866 53.1243V51.6119C126.866 50.006 127.223 48.8113 127.938 48.0266C128.654 47.2419 129.717 46.8501 131.129 46.8501C132.54 46.8501 133.525 47.2237 134.193 47.9708C134.528 48.3626 134.774 48.8623 134.932 49.4699C135.09 50.0764 135.168 50.8005 135.168 51.641C135.168 51.8278 135.108 51.9733 134.987 52.0752C134.867 52.1783 134.704 52.2292 134.5 52.2292H127.756V52.9861V52.9836ZM133.468 48.5166C132.986 47.9284 132.195 47.6336 131.1 47.6336C130.004 47.6336 129.163 47.9368 128.633 48.5445C128.104 49.1509 127.812 50.1176 127.755 51.4433H134.248C134.21 50.08 133.951 49.1048 133.467 48.5166H133.468Z" fill="white"/>
<path d="M140.91 47.214C141.467 46.9714 142.145 46.8501 142.944 46.8501C144.895 46.8501 146.074 47.653 146.483 49.2589C146.539 49.5015 146.584 49.8471 146.622 50.2959C146.659 50.7434 146.677 51.2674 146.677 51.8641V57.27C146.677 57.4567 146.64 57.5962 146.566 57.6896C146.491 57.783 146.38 57.8291 146.232 57.8291C146.102 57.8291 145.996 57.7818 145.911 57.6896C145.828 57.5962 145.786 57.4567 145.786 57.27V51.9478C145.786 51.2759 145.758 50.6974 145.702 50.211C145.647 49.7258 145.562 49.362 145.451 49.1182C145.024 48.1285 144.198 47.6336 142.972 47.6336C142.359 47.6336 141.801 47.7319 141.299 47.9271C140.797 48.1236 140.417 48.3989 140.157 48.7531C139.933 49.0709 139.775 49.4675 139.682 49.9442C139.589 50.4208 139.542 51.0879 139.542 51.9466V57.2687C139.542 57.4555 139.505 57.595 139.431 57.6884C139.357 57.7818 139.246 57.8279 139.097 57.8279C138.967 57.8279 138.861 57.7806 138.776 57.6884C138.693 57.595 138.651 57.4555 138.651 57.2687V47.4092C138.651 47.2601 138.688 47.1388 138.762 47.0454C138.835 46.952 138.938 46.9047 139.068 46.9047C139.199 46.9047 139.305 46.9847 139.389 47.1424C139.472 47.3013 139.523 47.7076 139.542 48.3614C139.895 47.8386 140.351 47.4553 140.908 47.2128L140.91 47.214Z" fill="white"/>
<path d="M151.22 48.0399C151.926 47.2467 152.976 46.8489 154.37 46.8489C154.964 46.8489 155.484 46.9326 155.93 47.1012C156.376 47.2697 156.803 47.5402 157.211 47.9138C157.379 48.0448 157.462 48.1843 157.462 48.3334C157.462 48.4644 157.42 48.5712 157.337 48.6561C157.253 48.7398 157.146 48.7822 157.016 48.7822C156.941 48.7822 156.877 48.7677 156.82 48.7398C156.765 48.7119 156.7 48.6609 156.625 48.5857C156.012 47.9514 155.249 47.6336 154.339 47.6336C153.224 47.6336 152.398 47.9696 151.86 48.6415C151.32 49.3135 151.051 50.3505 151.051 51.7501V52.9824C151.051 54.3833 151.32 55.4191 151.86 56.091C152.398 56.763 153.234 57.0989 154.368 57.0989C154.87 57.0989 155.343 57.0249 155.79 56.8746C156.235 56.7254 156.626 56.501 156.96 56.2026C157.128 56.0534 157.267 55.9782 157.378 55.9782C157.489 55.9782 157.586 56.0207 157.67 56.1044C157.753 56.1881 157.795 56.2863 157.795 56.3979C157.795 56.5471 157.684 56.706 157.461 56.8746C156.607 57.5465 155.567 57.8825 154.339 57.8825C152.964 57.8825 151.924 57.481 151.218 56.6781C150.512 55.8751 150.158 54.6889 150.158 53.1207V51.6082C150.158 50.0218 150.511 48.8307 151.218 48.0363L151.22 48.0399Z" fill="white"/>
<path d="M160.889 52.9836C160.889 54.4027 161.158 55.4446 161.697 56.1068C162.236 56.7703 163.1 57.1014 164.289 57.1014C164.884 57.1014 165.432 57.0225 165.934 56.8636C166.436 56.7048 166.909 56.4573 167.355 56.1214C167.486 56.028 167.597 55.9807 167.69 55.9807C167.801 55.9807 167.898 56.0231 167.982 56.1068C168.065 56.1905 168.107 56.2984 168.107 56.4294C168.107 56.5046 168.084 56.5786 168.037 56.6538C167.99 56.729 167.894 56.8127 167.745 56.9061C167.281 57.2239 166.756 57.4664 166.17 57.6338C165.585 57.8024 164.94 57.8861 164.234 57.8861C162.803 57.8861 161.74 57.4943 161.043 56.7096C160.347 55.9249 159.999 54.7302 159.999 53.1243V51.6119C159.999 50.006 160.356 48.8113 161.071 48.0266C161.787 47.2419 162.85 46.8501 164.262 46.8501C165.673 46.8501 166.658 47.2237 167.326 47.9708C167.661 48.3626 167.907 48.8623 168.065 49.4699C168.223 50.0764 168.301 50.8005 168.301 51.641C168.301 51.8278 168.241 51.9733 168.12 52.0752C168 52.1783 167.837 52.2292 167.633 52.2292H160.889V52.9861V52.9836ZM166.602 48.5166C166.12 47.9284 165.329 47.6336 164.234 47.6336C163.138 47.6336 162.297 47.9368 161.767 48.5445C161.238 49.1509 160.946 50.1176 160.889 51.4433H167.382C167.345 50.08 167.085 49.1048 166.601 48.5166H166.602Z" fill="white"/>
<path d="M72.6816 74.9476C72.6816 75.9725 72.6116 76.9416 72.4729 77.8549C72.3341 78.7682 72.065 79.5736 71.6668 80.2722C71.2674 80.9708 70.6931 81.5166 69.9426 81.9072C69.192 82.2989 68.2135 82.4942 67.0092 82.4942C65.805 82.4942 64.8035 82.2941 64.0614 81.8938C63.3193 81.4936 62.7498 80.9478 62.3516 80.2588C61.9522 79.5699 61.6843 78.7682 61.5444 77.8549C61.4056 76.9416 61.3356 75.9725 61.3356 74.9476V72.8239C61.3356 71.7808 61.4056 70.8069 61.5444 69.9033C61.6843 68.9997 61.9522 68.198 62.3516 67.4993C62.7498 66.8007 63.3254 66.2549 64.0759 65.8644C64.8264 65.4726 65.805 65.2773 67.0092 65.2773C68.2135 65.2773 69.215 65.4775 69.957 65.8777C70.6979 66.2792 71.2686 66.8238 71.6668 67.5127C72.065 68.2028 72.3341 69.0033 72.4729 69.9166C72.6116 70.8299 72.6816 71.799 72.6816 72.8239V74.9476ZM62.4481 77.5202C62.5592 78.3219 62.7679 79.0387 63.0732 79.673C63.3797 80.3062 63.8418 80.8046 64.4632 81.1685C65.0846 81.5324 65.9329 81.7131 67.008 81.7131C68.0831 81.7131 68.8807 81.5275 69.5106 81.154C70.1404 80.7816 70.6231 80.2831 70.9561 79.6585C71.2904 79.0338 71.5124 78.3219 71.6234 77.5202C71.7344 76.7197 71.7899 75.8901 71.7899 75.0325V72.7402C71.7899 71.8645 71.7296 71.0312 71.6089 70.238C71.4883 69.446 71.2662 68.7328 70.9416 68.0997C70.6171 67.4666 70.1392 66.9681 69.5094 66.6042C68.8795 66.2404 68.0445 66.0597 67.0068 66.0597C65.9691 66.0597 65.1341 66.2464 64.5043 66.6188C63.8744 66.9924 63.3917 67.4896 63.0587 68.1143C62.7245 68.7389 62.5024 69.4521 62.3914 70.2526C62.2804 71.0543 62.2249 71.8839 62.2249 72.7402V75.0325C62.2611 75.8901 62.3359 76.7197 62.4469 77.5202H62.4481Z" fill="white"/>
<path d="M76.9917 69.7771C76.9917 69.1804 77.0147 68.58 77.0605 67.9748C77.1076 67.3696 77.227 66.8153 77.4225 66.3119C77.6168 65.8086 77.9269 65.4035 78.354 65.0966C78.78 64.7886 79.3833 64.6357 80.1616 64.6357C80.6068 64.6357 81.0376 64.6915 81.4539 64.8031C81.8714 64.9147 82.214 65.059 82.4831 65.2361C82.751 65.4132 82.8861 65.5951 82.8861 65.7807C82.8861 65.8923 82.8439 65.9905 82.7606 66.0742C82.6774 66.1579 82.5797 66.2004 82.4686 66.2004C82.3576 66.2004 82.2044 66.1349 82.0101 66.0051C81.8159 65.8753 81.5697 65.7443 81.2729 65.6133C80.976 65.4835 80.6056 65.4181 80.1604 65.4181C79.6041 65.4181 79.1588 65.5539 78.8258 65.8232C78.4916 66.0936 78.2515 66.546 78.103 67.1792C77.9546 67.8123 77.881 68.6698 77.881 69.7505V71.7626H80.1061C80.2545 71.7626 80.3703 71.7954 80.4536 71.8609C80.5368 71.9264 80.5791 72.0246 80.5791 72.1544C80.5791 72.2842 80.5368 72.3824 80.4536 72.4479C80.3703 72.5134 80.2545 72.5462 80.1061 72.5462H77.881V81.8817C77.881 82.0685 77.8436 82.208 77.77 82.3014C77.6964 82.3947 77.5842 82.4408 77.4358 82.4408C77.3055 82.4408 77.1993 82.3935 77.116 82.3014C77.0328 82.208 76.9905 82.0685 76.9905 81.8817V72.5462H74.9598C74.8113 72.5462 74.6955 72.5134 74.6122 72.4479C74.529 72.3824 74.4868 72.2854 74.4868 72.1544C74.4868 72.0234 74.5278 71.9264 74.6122 71.8609C74.6955 71.7954 74.8113 71.7626 74.9598 71.7626H76.9905V69.7784L76.9917 69.7771ZM84.4994 69.7771C84.4994 69.1804 84.5223 68.58 84.5694 67.9748C84.6152 67.3696 84.7359 66.8153 84.9302 66.3119C85.1244 65.8086 85.4346 65.4035 85.8617 65.0966C86.2876 64.7886 86.8813 64.6357 87.6415 64.6357C88.0867 64.6357 88.5223 64.6915 88.9483 64.8031C89.3742 64.9147 89.7217 65.059 89.9908 65.2361C90.2587 65.4132 90.3938 65.5951 90.3938 65.7807C90.3938 65.8923 90.3528 65.9905 90.2683 66.0742C90.1851 66.1579 90.0777 66.2004 89.9486 66.2004C89.8376 66.2004 89.6891 66.1349 89.5033 66.0051C89.3175 65.8753 89.0762 65.7443 88.7806 65.6133C88.4837 65.4835 88.1133 65.4181 87.668 65.4181C86.8149 65.4181 86.2225 65.7346 85.8882 66.369C85.554 67.0021 85.3875 68.1301 85.3875 69.7517V71.7638H88.725C88.8735 71.7638 88.9893 71.7966 89.0726 71.8621C89.1558 71.9276 89.198 72.0258 89.198 72.1556C89.198 72.2854 89.157 72.3836 89.0726 72.4491C88.9893 72.5146 88.8735 72.5474 88.725 72.5474H85.3875V81.8829C85.3875 82.0697 85.3501 82.2092 85.2765 82.3026C85.2029 82.396 85.0907 82.442 84.9422 82.442C84.8119 82.442 84.7057 82.3948 84.6225 82.3026C84.5392 82.2092 84.497 82.0697 84.497 81.8829V72.5474H82.4674C82.319 72.5474 82.2032 72.5146 82.1199 72.4491C82.0367 72.3836 81.9944 72.2866 81.9944 72.1556C81.9944 72.0246 82.0367 71.9276 82.1199 71.8621C82.2032 71.7966 82.319 71.7638 82.4674 71.7638H84.497V69.7796L84.4994 69.7771ZM92.0626 67.3308C92.1736 67.4897 92.2291 67.7274 92.2291 68.0439C92.2291 68.3605 92.1736 68.6031 92.0626 68.7705C91.9516 68.9378 91.7935 69.0215 91.5896 69.0215C91.3857 69.0215 91.2288 68.9378 91.1166 68.7705C91.0044 68.6031 90.9501 68.3605 90.9501 68.0439C90.9501 67.7274 91.0056 67.4897 91.1166 67.3308C91.2276 67.1731 91.3845 67.093 91.5896 67.093C91.7947 67.093 91.9504 67.1731 92.0626 67.3308ZM91.1733 72.0974C91.1733 71.9118 91.2143 71.7711 91.2988 71.6777C91.3821 71.5843 91.4882 71.5383 91.6186 71.5383C91.767 71.5383 91.878 71.5856 91.9528 71.6777C92.0264 71.7711 92.0638 71.9106 92.0638 72.0974V81.8805C92.0638 82.0673 92.0264 82.2068 91.9528 82.3001C91.8792 82.3935 91.767 82.4396 91.6186 82.4396C91.4882 82.4396 91.3821 82.3923 91.2988 82.3001C91.2155 82.2068 91.1733 82.0673 91.1733 81.8805V72.0974Z" fill="white"/>
<path d="M96.8457 72.6698C97.5503 71.8778 98.5977 71.4824 99.9877 71.4824C100.581 71.4824 101.1 71.5661 101.546 71.7335C101.991 71.9009 102.417 72.1713 102.825 72.5437C102.991 72.6747 103.076 72.8142 103.076 72.9634C103.076 73.0943 103.033 73.2011 102.95 73.2848C102.867 73.3685 102.759 73.4109 102.63 73.4109C102.557 73.4109 102.492 73.3963 102.436 73.3685C102.38 73.3406 102.315 73.2896 102.242 73.2144C101.63 72.5813 100.87 72.2635 99.9612 72.2635C98.8487 72.2635 98.0233 72.5995 97.4864 73.2702C96.9482 73.9409 96.6791 74.9755 96.6791 76.3728V77.6026C96.6791 78.9999 96.947 80.0345 97.4864 80.7052C98.0233 81.3759 98.8571 81.7119 99.9889 81.7119C100.49 81.7119 100.963 81.6379 101.407 81.4887C101.852 81.3395 102.242 81.1163 102.575 80.818C102.741 80.6688 102.881 80.5948 102.992 80.5948C103.103 80.5948 103.201 80.6373 103.284 80.7209C103.368 80.8046 103.41 80.9029 103.41 81.0145C103.41 81.1636 103.299 81.3213 103.076 81.4899C102.222 82.1606 101.185 82.4966 99.9612 82.4966C98.5892 82.4966 97.5515 82.0963 96.8469 81.2946C96.1422 80.4941 95.7899 79.3104 95.7899 77.7445V76.2345C95.7899 74.6505 96.1422 73.4631 96.8469 72.671L96.8457 72.6698Z" fill="white"/>
<path d="M106.495 77.6038C106.495 79.0205 106.763 80.0587 107.301 80.7209C107.838 81.3832 108.701 81.7131 109.887 81.7131C110.479 81.7131 111.027 81.6342 111.528 81.4753C112.029 81.3177 112.501 81.0702 112.946 80.7343C113.075 80.6409 113.186 80.5948 113.28 80.5948C113.391 80.5948 113.489 80.6372 113.572 80.7209C113.655 80.8046 113.698 80.9126 113.698 81.0423C113.698 81.1175 113.675 81.1915 113.629 81.2655C113.582 81.3407 113.485 81.4244 113.337 81.5166C112.873 81.8331 112.35 82.0757 111.766 82.2431C111.182 82.4105 110.537 82.4942 109.833 82.4942C108.405 82.4942 107.345 82.1024 106.648 81.3201C105.953 80.5378 105.606 79.3455 105.606 77.7421V76.232C105.606 74.6298 105.962 73.4364 106.676 72.654C107.39 71.8717 108.451 71.48 109.86 71.48C111.27 71.48 112.252 71.8523 112.919 72.5983C113.253 72.99 113.498 73.4885 113.656 74.0937C113.813 74.699 113.893 75.4218 113.893 76.2599C113.893 76.4467 113.833 76.5911 113.712 76.6929C113.591 76.796 113.428 76.847 113.225 76.847H106.495V77.6014V77.6038ZM112.196 73.1453C111.714 72.5582 110.926 72.2647 109.833 72.2647C108.739 72.2647 107.901 72.5679 107.372 73.1732C106.844 73.7784 106.552 74.7438 106.496 76.0659H112.976C112.939 74.7062 112.679 73.7323 112.198 73.1453H112.196Z" fill="white"/>
<path d="M7.31339 51.4479L18.1634 37.6284C18.7487 36.8837 18.7487 35.6647 18.1634 34.92L5.88594 19.2811C5.44793 18.7232 4.69861 19.1186 4.69861 19.9082V52.6402C4.69861 52.6984 4.71067 52.7481 4.71791 52.8015C4.71067 52.8549 4.69861 52.9058 4.69861 52.9628V85.6948C4.69861 86.4844 5.44793 86.8798 5.88594 86.3219L17.9921 70.9013C18.6714 70.0366 18.6714 68.6211 17.9921 67.7563L7.31459 54.1563C6.69076 53.3619 6.69076 52.2424 7.31459 51.4479H7.31339Z" fill="url(#paint0_linear_669_1622)"/>
<path d="M24.8482 34.8437L14.1707 21.2437C13.4913 20.3789 13.4913 18.9634 14.1707 18.0987L26.2756 2.67809C26.7136 2.12016 27.463 2.51556 27.463 3.30515V36.0372C27.463 36.0954 27.4509 36.1451 27.4437 36.1985C27.4509 36.2519 27.463 36.3028 27.463 36.3598V69.0918C27.463 69.8814 26.7136 70.2768 26.2756 69.7189L14.1695 54.2983C13.4901 53.4335 13.4901 52.0181 14.1695 51.1533L24.847 37.5533C25.4708 36.7588 25.4708 35.6393 24.847 34.8449L24.8482 34.8437Z" fill="url(#paint1_linear_669_1622)"/>
<path d="M35.7948 51.4479L46.6448 37.6284C47.23 36.8837 47.23 35.6647 46.6448 34.92L34.3673 19.2811C33.9293 18.7232 33.18 19.1186 33.18 19.9082V52.6402C33.18 52.6984 33.1921 52.7481 33.1993 52.8015C33.1921 52.8549 33.18 52.9058 33.18 52.9628V85.6948C33.18 86.4844 33.9293 86.8798 34.3673 86.3219L46.6448 70.683C47.23 69.9383 47.23 68.7194 46.6448 67.9747L35.7948 54.1551C35.1709 53.3606 35.1709 52.2412 35.7948 51.4467V51.4479Z" fill="url(#paint2_linear_669_1622)"/>
<defs>
<linearGradient id="paint0_linear_669_1622" x1="-8.06759" y1="69.8401" x2="34.1592" y2="16.9392" gradientUnits="userSpaceOnUse">
<stop stop-color="#01CCFF"/>
<stop offset="1" stop-color="#022AE3"/>
</linearGradient>
<linearGradient id="paint1_linear_669_1622" x1="-3.31828" y1="74.2817" x2="38.9085" y2="21.3808" gradientUnits="userSpaceOnUse">
<stop stop-color="#01CCFF"/>
<stop offset="1" stop-color="#022AE3"/>
</linearGradient>
<linearGradient id="paint2_linear_669_1622" x1="9.39843" y1="83.7821" x2="51.6252" y2="30.8812" gradientUnits="userSpaceOnUse">
<stop stop-color="#01CCFF"/>
<stop offset="1" stop-color="#022AE3"/>
</linearGradient>
</defs>
</svg>
